<svg width="524" height="273" viewBox="0 0 524 273" fill="none" xmlns="http://www.w3.org/2000/svg">
<rect width="523.333" height="273" rx="8" fill="#D9D9D9"/>
<path d="M133.808 25.9545V40.5H132.047V27.517H124.717V40.5H122.956V25.9545H133.808ZM137.134 44.5909V29.5909H138.753V31.3239H138.952C139.075 31.1345 139.245 30.893 139.463 30.5994C139.686 30.3011 140.003 30.036 140.415 29.804C140.832 29.5672 141.395 29.4489 142.105 29.4489C143.024 29.4489 143.834 29.6785 144.534 30.1378C145.235 30.5971 145.782 31.2481 146.175 32.0909C146.568 32.9337 146.764 33.928 146.764 35.0739C146.764 36.2292 146.568 37.2306 146.175 38.0781C145.782 38.9209 145.237 39.5743 144.541 40.0384C143.845 40.4976 143.043 40.7273 142.134 40.7273C141.433 40.7273 140.872 40.6113 140.45 40.3793C140.029 40.1425 139.705 39.875 139.477 39.5767C139.25 39.2737 139.075 39.0227 138.952 38.8239H138.81V44.5909H137.134ZM138.781 35.0455C138.781 35.8693 138.902 36.5961 139.144 37.2259C139.385 37.8509 139.738 38.3409 140.202 38.696C140.666 39.0464 141.234 39.2216 141.906 39.2216C142.607 39.2216 143.192 39.0369 143.661 38.6676C144.134 38.2936 144.489 37.7917 144.726 37.1619C144.968 36.5275 145.088 35.822 145.088 35.0455C145.088 34.2784 144.97 33.5871 144.733 32.9716C144.501 32.3513 144.148 31.8613 143.675 31.5014C143.206 31.1368 142.617 30.9545 141.906 30.9545C141.225 30.9545 140.652 31.1274 140.188 31.473C139.724 31.8139 139.373 32.2921 139.137 32.9077C138.9 33.5185 138.781 34.2311 138.781 35.0455ZM153.753 40.7273C152.768 40.7273 151.904 40.4929 151.161 40.0241C150.422 39.5554 149.844 38.8996 149.428 38.0568C149.016 37.214 148.81 36.2292 148.81 35.1023C148.81 33.9659 149.016 32.974 149.428 32.1264C149.844 31.2789 150.422 30.6207 151.161 30.152C151.904 29.6832 152.768 29.4489 153.753 29.4489C154.738 29.4489 155.6 29.6832 156.338 30.152C157.082 30.6207 157.659 31.2789 158.071 32.1264C158.488 32.974 158.696 33.9659 158.696 35.1023C158.696 36.2292 158.488 37.214 158.071 38.0568C157.659 38.8996 157.082 39.5554 156.338 40.0241C155.6 40.4929 154.738 40.7273 153.753 40.7273ZM153.753 39.2216C154.501 39.2216 155.117 39.0298 155.6 38.6463C156.083 38.2628 156.44 37.7585 156.672 37.1335C156.904 36.5085 157.02 35.8314 157.02 35.1023C157.02 34.3731 156.904 33.6937 156.672 33.0639C156.44 32.4342 156.083 31.9252 155.6 31.5369C155.117 31.1487 154.501 30.9545 153.753 30.9545C153.005 30.9545 152.389 31.1487 151.906 31.5369C151.423 31.9252 151.066 32.4342 150.834 33.0639C150.602 33.6937 150.486 34.3731 150.486 35.1023C150.486 35.8314 150.602 36.5085 150.834 37.1335C151.066 37.7585 151.423 38.2628 151.906 38.6463C152.389 39.0298 153.005 39.2216 153.753 39.2216ZM167.988 29.5909V31.1534H162.931V40.5H161.255V29.5909H167.988ZM177.736 34.2784V35.8409H171.713V34.2784H177.736ZM172.111 29.5909V40.5H170.434V29.5909H172.111ZM179.014 29.5909V40.5H177.338V29.5909H179.014ZM186.507 40.7273C185.522 40.7273 184.658 40.4929 183.915 40.0241C183.176 39.5554 182.598 38.8996 182.182 38.0568C181.77 37.214 181.564 36.2292 181.564 35.1023C181.564 33.9659 181.77 32.974 182.182 32.1264C182.598 31.2789 183.176 30.6207 183.915 30.152C184.658 29.6832 185.522 29.4489 186.507 29.4489C187.492 29.4489 188.354 29.6832 189.092 30.152C189.836 30.6207 190.413 31.2789 190.825 32.1264C191.242 32.974 191.45 33.9659 191.45 35.1023C191.45 36.2292 191.242 37.214 190.825 38.0568C190.413 38.8996 189.836 39.5554 189.092 40.0241C188.354 40.4929 187.492 40.7273 186.507 40.7273ZM186.507 39.2216C187.255 39.2216 187.871 39.0298 188.354 38.6463C188.836 38.2628 189.194 37.7585 189.426 37.1335C189.658 36.5085 189.774 35.8314 189.774 35.1023C189.774 34.3731 189.658 33.6937 189.426 33.0639C189.194 32.4342 188.836 31.9252 188.354 31.5369C187.871 31.1487 187.255 30.9545 186.507 30.9545C185.759 30.9545 185.143 31.1487 184.66 31.5369C184.177 31.9252 183.82 32.4342 183.588 33.0639C183.356 33.6937 183.24 34.3731 183.24 35.1023C183.24 35.8314 183.356 36.5085 183.588 37.1335C183.82 37.7585 184.177 38.2628 184.66 38.6463C185.143 39.0298 185.759 39.2216 186.507 39.2216ZM193.327 37.7159H195.117C195.155 38.2083 195.377 38.5824 195.784 38.8381C196.196 39.0938 196.731 39.2216 197.389 39.2216C198.062 39.2216 198.637 39.0843 199.115 38.8097C199.593 38.5303 199.833 38.0805 199.833 37.4602C199.833 37.0956 199.743 36.7784 199.563 36.5085C199.383 36.2339 199.129 36.0208 198.803 35.8693C198.476 35.7178 198.09 35.642 197.645 35.642H195.77V34.1364H197.645C198.313 34.1364 198.805 33.9848 199.122 33.6818C199.444 33.3788 199.605 33 199.605 32.5455C199.605 32.0578 199.432 31.6671 199.087 31.3736C198.741 31.0753 198.251 30.9261 197.617 30.9261C196.977 30.9261 196.445 31.0705 196.019 31.3594C195.593 31.6435 195.368 32.0104 195.344 32.4602H193.583C193.602 31.8731 193.781 31.3546 194.122 30.9048C194.463 30.4503 194.927 30.0952 195.514 29.8395C196.102 29.5791 196.774 29.4489 197.531 29.4489C198.298 29.4489 198.964 29.5838 199.527 29.8537C200.095 30.1188 200.533 30.4811 200.841 30.9403C201.154 31.3949 201.31 31.911 201.31 32.4886C201.31 33.1042 201.137 33.6013 200.791 33.9801C200.446 34.3589 200.012 34.6288 199.492 34.7898V34.9034C199.904 34.9318 200.261 35.0644 200.564 35.3011C200.872 35.5331 201.111 35.8385 201.281 36.2173C201.452 36.5914 201.537 37.0057 201.537 37.4602C201.537 38.1231 201.36 38.7008 201.004 39.1932C200.649 39.6809 200.162 40.0597 199.541 40.3295C198.921 40.5947 198.213 40.7273 197.418 40.7273C196.646 40.7273 195.955 40.6018 195.344 40.3509C194.733 40.0952 194.248 39.7424 193.888 39.2926C193.533 38.8381 193.346 38.3125 193.327 37.7159ZM209.517 40.5V29.5909H218.096V40.5H216.42V31.1534H211.193V40.5H209.517ZM221.157 44.5909V29.5909H222.776V31.3239H222.975C223.098 31.1345 223.269 30.893 223.487 30.5994C223.709 30.3011 224.026 30.036 224.438 29.804C224.855 29.5672 225.419 29.4489 226.129 29.4489C227.047 29.4489 227.857 29.6785 228.558 30.1378C229.258 30.5971 229.805 31.2481 230.198 32.0909C230.591 32.9337 230.788 33.928 230.788 35.0739C230.788 36.2292 230.591 37.2306 230.198 38.0781C229.805 38.9209 229.261 39.5743 228.565 40.0384C227.869 40.4976 227.066 40.7273 226.157 40.7273C225.456 40.7273 224.895 40.6113 224.474 40.3793C224.052 40.1425 223.728 39.875 223.501 39.5767C223.274 39.2737 223.098 39.0227 222.975 38.8239H222.833V44.5909H221.157ZM222.805 35.0455C222.805 35.8693 222.926 36.5961 223.167 37.2259C223.409 37.8509 223.761 38.3409 224.225 38.696C224.689 39.0464 225.258 39.2216 225.93 39.2216C226.631 39.2216 227.215 39.0369 227.684 38.6676C228.158 38.2936 228.513 37.7917 228.749 37.1619C228.991 36.5275 229.112 35.822 229.112 35.0455C229.112 34.2784 228.993 33.5871 228.757 32.9716C228.525 32.3513 228.172 31.8613 227.698 31.5014C227.23 31.1368 226.64 30.9545 225.93 30.9545C225.248 30.9545 224.675 31.1274 224.211 31.473C223.747 31.8139 223.397 32.2921 223.16 32.9077C222.923 33.5185 222.805 34.2311 222.805 35.0455ZM237.776 40.7273C236.792 40.7273 235.927 40.4929 235.184 40.0241C234.445 39.5554 233.868 38.8996 233.451 38.0568C233.039 37.214 232.833 36.2292 232.833 35.1023C232.833 33.9659 233.039 32.974 233.451 32.1264C233.868 31.2789 234.445 30.6207 235.184 30.152C235.927 29.6832 236.792 29.4489 237.776 29.4489C238.761 29.4489 239.623 29.6832 240.362 30.152C241.105 30.6207 241.683 31.2789 242.095 32.1264C242.511 32.974 242.72 33.9659 242.72 35.1023C242.72 36.2292 242.511 37.214 242.095 38.0568C241.683 38.8996 241.105 39.5554 240.362 40.0241C239.623 40.4929 238.761 40.7273 237.776 40.7273ZM237.776 39.2216C238.525 39.2216 239.14 39.0298 239.623 38.6463C240.106 38.2628 240.463 37.7585 240.695 37.1335C240.927 36.5085 241.044 35.8314 241.044 35.1023C241.044 34.3731 240.927 33.6937 240.695 33.0639C240.463 32.4342 240.106 31.9252 239.623 31.5369C239.14 31.1487 238.525 30.9545 237.776 30.9545C237.028 30.9545 236.413 31.1487 235.93 31.5369C235.447 31.9252 235.089 32.4342 234.857 33.0639C234.625 33.6937 234.509 34.3731 234.509 35.1023C234.509 35.8314 234.625 36.5085 234.857 37.1335C235.089 37.7585 235.447 38.2628 235.93 38.6463C236.413 39.0298 237.028 39.2216 237.776 39.2216ZM244.113 43.625V38.9375H245.023C245.245 38.7055 245.437 38.4545 245.598 38.1847C245.759 37.9148 245.898 37.5952 246.017 37.2259C246.14 36.8518 246.244 36.3973 246.329 35.8622C246.415 35.3224 246.49 34.6714 246.557 33.9091L246.926 29.5909H253.858V38.9375H255.534V43.625H253.858V40.5H245.79V43.625H244.113ZM246.926 38.9375H252.182V31.1534H248.488L248.204 33.9091C248.086 35.0502 247.939 36.0469 247.764 36.8991C247.589 37.7514 247.309 38.4309 246.926 38.9375ZM260.969 40.7557C260.278 40.7557 259.65 40.6255 259.087 40.3651C258.523 40.0999 258.076 39.7188 257.744 39.2216C257.413 38.7197 257.247 38.1136 257.247 37.4034C257.247 36.7784 257.37 36.2718 257.617 35.8835C257.863 35.4905 258.192 35.1828 258.604 34.9602C259.016 34.7377 259.47 34.572 259.968 34.4631C260.469 34.3494 260.974 34.2595 261.48 34.1932C262.143 34.108 262.681 34.044 263.093 34.0014C263.509 33.9541 263.812 33.8759 264.002 33.767C264.196 33.6581 264.293 33.4687 264.293 33.1989V33.142C264.293 32.4413 264.101 31.8968 263.718 31.5085C263.339 31.1203 262.763 30.9261 261.992 30.9261C261.191 30.9261 260.564 31.1013 260.11 31.4517C259.655 31.8021 259.335 32.1761 259.151 32.5739L257.56 32.0057C257.844 31.3428 258.223 30.8267 258.696 30.4574C259.174 30.0833 259.695 29.8229 260.259 29.6761C260.827 29.5246 261.386 29.4489 261.935 29.4489C262.285 29.4489 262.688 29.4915 263.142 29.5767C263.602 29.6572 264.044 29.8253 264.47 30.081C264.901 30.3366 265.259 30.7225 265.543 31.2386C265.827 31.7547 265.969 32.446 265.969 33.3125V40.5H264.293V39.0227H264.208C264.094 39.2595 263.905 39.5128 263.639 39.7827C263.374 40.0526 263.021 40.2822 262.581 40.4716C262.141 40.661 261.603 40.7557 260.969 40.7557ZM261.225 39.25C261.887 39.25 262.446 39.1198 262.901 38.8594C263.36 38.599 263.706 38.2628 263.938 37.8509C264.174 37.4389 264.293 37.0057 264.293 36.5511V35.017C264.222 35.1023 264.066 35.1804 263.824 35.2514C263.587 35.3177 263.313 35.3769 263 35.429C262.692 35.4763 262.392 35.5189 262.098 35.5568C261.809 35.59 261.575 35.6184 261.395 35.642C260.959 35.6989 260.552 35.7912 260.173 35.919C259.799 36.0421 259.496 36.2292 259.264 36.4801C259.037 36.7263 258.923 37.0625 258.923 37.4886C258.923 38.071 259.139 38.5114 259.57 38.8097C260.005 39.1032 260.557 39.25 261.225 39.25ZM268.346 40.5L272.778 34.9602L268.403 29.5909H270.392L274.028 34.25H274.937V29.5909H276.613V34.25H277.494L281.131 29.5909H283.119L278.773 34.9602L283.176 40.5H281.159L277.466 35.8125H276.613V40.5H274.937V35.8125H274.085L270.363 40.5H268.346ZM291.196 40.5V29.5909H299.776V40.5H298.1V31.1534H292.872V40.5H291.196ZM302.837 44.5909V29.5909H304.456V31.3239H304.655C304.778 31.1345 304.949 30.893 305.166 30.5994C305.389 30.3011 305.706 30.036 306.118 29.804C306.535 29.5672 307.098 29.4489 307.808 29.4489C308.727 29.4489 309.537 29.6785 310.237 30.1378C310.938 30.5971 311.485 31.2481 311.878 32.0909C312.271 32.9337 312.468 33.928 312.468 35.0739C312.468 36.2292 312.271 37.2306 311.878 38.0781C311.485 38.9209 310.941 39.5743 310.244 40.0384C309.548 40.4976 308.746 40.7273 307.837 40.7273C307.136 40.7273 306.575 40.6113 306.154 40.3793C305.732 40.1425 305.408 39.875 305.181 39.5767C304.953 39.2737 304.778 39.0227 304.655 38.8239H304.513V44.5909H302.837ZM304.485 35.0455C304.485 35.8693 304.605 36.5961 304.847 37.2259C305.088 37.8509 305.441 38.3409 305.905 38.696C306.369 39.0464 306.937 39.2216 307.61 39.2216C308.31 39.2216 308.895 39.0369 309.364 38.6676C309.837 38.2936 310.192 37.7917 310.429 37.1619C310.671 36.5275 310.791 35.822 310.791 35.0455C310.791 34.2784 310.673 33.5871 310.436 32.9716C310.204 32.3513 309.852 31.8613 309.378 31.5014C308.909 31.1368 308.32 30.9545 307.61 30.9545C306.928 30.9545 306.355 31.1274 305.891 31.473C305.427 31.8139 305.076 32.2921 304.84 32.9077C304.603 33.5185 304.485 34.2311 304.485 35.0455ZM319.456 40.7273C318.471 40.7273 317.607 40.4929 316.864 40.0241C316.125 39.5554 315.548 38.8996 315.131 38.0568C314.719 37.214 314.513 36.2292 314.513 35.1023C314.513 33.9659 314.719 32.974 315.131 32.1264C315.548 31.2789 316.125 30.6207 316.864 30.152C317.607 29.6832 318.471 29.4489 319.456 29.4489C320.441 29.4489 321.303 29.6832 322.041 30.152C322.785 30.6207 323.362 31.2789 323.774 32.1264C324.191 32.974 324.399 33.9659 324.399 35.1023C324.399 36.2292 324.191 37.214 323.774 38.0568C323.362 38.8996 322.785 39.5554 322.041 40.0241C321.303 40.4929 320.441 40.7273 319.456 40.7273ZM319.456 39.2216C320.204 39.2216 320.82 39.0298 321.303 38.6463C321.786 38.2628 322.143 37.7585 322.375 37.1335C322.607 36.5085 322.723 35.8314 322.723 35.1023C322.723 34.3731 322.607 33.6937 322.375 33.0639C322.143 32.4342 321.786 31.9252 321.303 31.5369C320.82 31.1487 320.204 30.9545 319.456 30.9545C318.708 30.9545 318.093 31.1487 317.61 31.5369C317.127 31.9252 316.769 32.4342 316.537 33.0639C316.305 33.6937 316.189 34.3731 316.189 35.1023C316.189 35.8314 316.305 36.5085 316.537 37.1335C316.769 37.7585 317.127 38.2628 317.61 38.6463C318.093 39.0298 318.708 39.2216 319.456 39.2216ZM325.793 43.625V38.9375H326.702C326.925 38.7055 327.117 38.4545 327.278 38.1847C327.439 37.9148 327.578 37.5952 327.697 37.2259C327.82 36.8518 327.924 36.3973 328.009 35.8622C328.094 35.3224 328.17 34.6714 328.236 33.9091L328.606 29.5909H335.537V38.9375H337.214V43.625H335.537V40.5H327.469V43.625H325.793ZM328.606 38.9375H333.861V31.1534H330.168L329.884 33.9091C329.766 35.0502 329.619 36.0469 329.444 36.8991C329.269 37.7514 328.989 38.4309 328.606 38.9375ZM340.518 44.5909C340.234 44.5909 339.981 44.5672 339.758 44.5199C339.535 44.4773 339.382 44.4347 339.296 44.392L339.722 42.9148C340.13 43.0189 340.49 43.0568 340.802 43.0284C341.115 43 341.392 42.8603 341.633 42.6094C341.879 42.3632 342.104 41.9631 342.308 41.4091L342.62 40.5568L338.586 29.5909H340.404L343.416 38.2841H343.529L346.541 29.5909H348.359L343.728 42.0909C343.52 42.6544 343.262 43.1207 342.954 43.4901C342.646 43.8641 342.289 44.1411 341.882 44.321C341.479 44.5009 341.025 44.5909 340.518 44.5909ZM350.571 40.5V29.5909H352.247V34.3352H353.355L357.276 29.5909H359.435L355.031 34.8466L359.492 40.5H357.333L353.753 35.8977H352.247V40.5H350.571ZM369.893 29.5909V38.9375H371.427V44.0227H369.751V40.5H361.313V29.5909H362.99V38.9375H368.217V29.5909H369.893ZM375.685 38.0284L380.941 29.5909H382.872V40.5H381.196V32.0625L375.969 40.5H374.009V29.5909H375.685V38.0284ZM387.618 38.0284L392.874 29.5909H394.806V40.5H393.13V32.0625L387.903 40.5H385.942V29.5909H387.618V38.0284ZM127.132 64.7273C126.109 64.7273 125.229 64.4858 124.49 64.0028C123.751 63.5199 123.183 62.8546 122.785 62.0071C122.388 61.1596 122.189 60.1913 122.189 59.1023C122.189 57.9943 122.392 57.0166 122.8 56.169C123.211 55.3168 123.784 54.6515 124.518 54.1733C125.257 53.6903 126.119 53.4489 127.104 53.4489C127.871 53.4489 128.562 53.5909 129.177 53.875C129.793 54.1591 130.297 54.5568 130.69 55.0682C131.083 55.5795 131.327 56.1761 131.422 56.858H129.746C129.618 56.3608 129.334 55.9205 128.893 55.5369C128.458 55.1487 127.871 54.9545 127.132 54.9545C126.479 54.9545 125.906 55.125 125.413 55.4659C124.925 55.8021 124.544 56.2779 124.27 56.8935C124 57.5043 123.865 58.2216 123.865 59.0455C123.865 59.8883 123.997 60.6222 124.263 61.2472C124.532 61.8722 124.911 62.3575 125.399 62.7031C125.891 63.0488 126.469 63.2216 127.132 63.2216C127.568 63.2216 127.963 63.1458 128.318 62.9943C128.673 62.8428 128.974 62.625 129.22 62.3409C129.466 62.0568 129.641 61.7159 129.746 61.3182H131.422C131.327 61.9621 131.093 62.5421 130.719 63.0582C130.349 63.5696 129.859 63.9768 129.248 64.2798C128.642 64.5781 127.937 64.7273 127.132 64.7273ZM138.304 64.7273C137.319 64.7273 136.455 64.4929 135.711 64.0241C134.973 63.5554 134.395 62.8996 133.979 62.0568C133.567 61.214 133.361 60.2292 133.361 59.1023C133.361 57.9659 133.567 56.974 133.979 56.1264C134.395 55.2789 134.973 54.6207 135.711 54.152C136.455 53.6832 137.319 53.4489 138.304 53.4489C139.289 53.4489 140.15 53.6832 140.889 54.152C141.632 54.6207 142.21 55.2789 142.622 56.1264C143.039 56.974 143.247 57.9659 143.247 59.1023C143.247 60.2292 143.039 61.214 142.622 62.0568C142.21 62.8996 141.632 63.5554 140.889 64.0241C140.15 64.4929 139.289 64.7273 138.304 64.7273ZM138.304 63.2216C139.052 63.2216 139.667 63.0298 140.15 62.6463C140.633 62.2628 140.991 61.7585 141.223 61.1335C141.455 60.5085 141.571 59.8314 141.571 59.1023C141.571 58.3731 141.455 57.6937 141.223 57.0639C140.991 56.4342 140.633 55.9252 140.15 55.5369C139.667 55.1487 139.052 54.9545 138.304 54.9545C137.556 54.9545 136.94 55.1487 136.457 55.5369C135.974 55.9252 135.617 56.4342 135.385 57.0639C135.153 57.6937 135.037 58.3731 135.037 59.1023C135.037 59.8314 135.153 60.5085 135.385 61.1335C135.617 61.7585 135.974 62.2628 136.457 62.6463C136.94 63.0298 137.556 63.2216 138.304 63.2216ZM153.902 49.5L154.754 50.5227C154.423 50.8447 154.039 51.0696 153.604 51.1974C153.168 51.3253 152.676 51.4034 152.127 51.4318C151.577 51.4602 150.967 51.4886 150.294 51.517C149.537 51.5455 148.909 51.7301 148.412 52.071C147.915 52.4119 147.531 52.9044 147.262 53.5483C146.992 54.1922 146.819 54.983 146.743 55.9205H146.885C147.254 55.2386 147.766 54.7367 148.419 54.4148C149.073 54.0928 149.773 53.9318 150.521 53.9318C151.374 53.9318 152.141 54.1307 152.823 54.5284C153.504 54.9261 154.044 55.5156 154.442 56.2969C154.84 57.0781 155.039 58.0417 155.039 59.1875C155.039 60.3286 154.835 61.3134 154.428 62.142C154.025 62.9706 153.459 63.6098 152.73 64.0597C152.006 64.5047 151.156 64.7273 150.181 64.7273C149.205 64.7273 148.351 64.4976 147.617 64.0384C146.883 63.5743 146.312 62.8878 145.905 61.9787C145.498 61.0649 145.294 59.9356 145.294 58.5909V57.4261C145.294 54.9972 145.706 53.1553 146.53 51.9006C147.359 50.6458 148.604 49.9972 150.266 49.9545C150.853 49.9356 151.376 49.9309 151.835 49.9403C152.295 49.9498 152.695 49.9285 153.036 49.8764C153.377 49.8243 153.665 49.6989 153.902 49.5ZM150.181 63.2216C150.839 63.2216 151.405 63.0559 151.878 62.7244C152.356 62.393 152.723 61.9266 152.979 61.3253C153.235 60.7192 153.362 60.0066 153.362 59.1875C153.362 58.392 153.232 57.715 152.972 57.1562C152.716 56.5975 152.349 56.1714 151.871 55.8778C151.393 55.5843 150.82 55.4375 150.152 55.4375C149.664 55.4375 149.227 55.5204 148.838 55.6861C148.45 55.8518 148.119 56.0956 147.844 56.4176C147.569 56.7396 147.356 57.1326 147.205 57.5966C147.058 58.0606 146.98 58.5909 146.97 59.1875C146.97 60.4091 147.257 61.3868 147.83 62.1207C148.403 62.8546 149.186 63.2216 150.181 63.2216ZM162.034 64.7273C161.012 64.7273 160.131 64.4858 159.392 64.0028C158.654 63.5199 158.085 62.8546 157.688 62.0071C157.29 61.1596 157.091 60.1913 157.091 59.1023C157.091 57.9943 157.295 57.0166 157.702 56.169C158.114 55.3168 158.687 54.6515 159.421 54.1733C160.159 53.6903 161.021 53.4489 162.006 53.4489C162.773 53.4489 163.464 53.5909 164.08 53.875C164.695 54.1591 165.2 54.5568 165.593 55.0682C165.985 55.5795 166.229 56.1761 166.324 56.858H164.648C164.52 56.3608 164.236 55.9205 163.796 55.5369C163.36 55.1487 162.773 54.9545 162.034 54.9545C161.381 54.9545 160.808 55.125 160.316 55.4659C159.828 55.8021 159.447 56.2779 159.172 56.8935C158.902 57.5043 158.767 58.2216 158.767 59.0455C158.767 59.8883 158.9 60.6222 159.165 61.2472C159.435 61.8722 159.814 62.3575 160.301 62.7031C160.794 63.0488 161.371 63.2216 162.034 63.2216C162.47 63.2216 162.865 63.1458 163.22 62.9943C163.575 62.8428 163.876 62.625 164.122 62.3409C164.369 62.0568 164.544 61.7159 164.648 61.3182H166.324C166.229 61.9621 165.995 62.5421 165.621 63.0582C165.252 63.5696 164.762 63.9768 164.151 64.2798C163.545 64.5781 162.839 64.7273 162.034 64.7273ZM167.915 55.1534V53.5909H176.779V55.1534H173.199V64.5H171.523V55.1534H167.915ZM179.224 64.5V53.5909H183.684C184.858 53.5909 185.791 53.8561 186.482 54.3864C187.173 54.9167 187.519 55.6174 187.519 56.4886C187.519 57.1515 187.323 57.6652 186.93 58.0298C186.537 58.3897 186.032 58.6335 185.417 58.7614C185.819 58.8182 186.21 58.9602 186.589 59.1875C186.972 59.4148 187.289 59.7273 187.54 60.125C187.791 60.518 187.917 61.0009 187.917 61.5739C187.917 62.1326 187.775 62.6321 187.491 63.0724C187.206 63.5128 186.799 63.8608 186.269 64.1165C185.739 64.3722 185.104 64.5 184.366 64.5H179.224ZM180.814 62.9659H184.366C184.943 62.9659 185.395 62.8286 185.722 62.554C186.049 62.2794 186.212 61.9053 186.212 61.4318C186.212 60.8684 186.049 60.4257 185.722 60.1037C185.395 59.777 184.943 59.6136 184.366 59.6136H180.814V62.9659ZM180.814 58.1648H183.684C184.134 58.1648 184.519 58.1032 184.841 57.9801C185.163 57.8523 185.41 57.6723 185.58 57.4403C185.755 57.2036 185.843 56.9242 185.843 56.6023C185.843 56.143 185.651 55.7831 185.268 55.5227C184.884 55.2576 184.356 55.125 183.684 55.125H180.814V58.1648ZM195.028 64.7273C193.977 64.7273 193.07 64.4953 192.308 64.0312C191.55 63.5625 190.965 62.9091 190.553 62.071C190.146 61.2282 189.943 60.2481 189.943 59.1307C189.943 58.0133 190.146 57.0284 190.553 56.1761C190.965 55.3191 191.538 54.6515 192.272 54.1733C193.011 53.6903 193.873 53.4489 194.857 53.4489C195.426 53.4489 195.987 53.5436 196.541 53.733C197.095 53.9223 197.599 54.2301 198.053 54.6562C198.508 55.0777 198.87 55.6364 199.14 56.3324C199.41 57.0284 199.545 57.8854 199.545 58.9034V59.6136H191.136V58.1648H197.84C197.84 57.5492 197.717 57 197.471 56.517C197.23 56.0341 196.884 55.6529 196.434 55.3736C195.989 55.0942 195.463 54.9545 194.857 54.9545C194.19 54.9545 193.612 55.1203 193.124 55.4517C192.642 55.7784 192.27 56.2045 192.009 56.7301C191.749 57.2557 191.619 57.8191 191.619 58.4205V59.3864C191.619 60.2102 191.761 60.9086 192.045 61.4815C192.334 62.0497 192.734 62.483 193.245 62.7812C193.757 63.0748 194.351 63.2216 195.028 63.2216C195.468 63.2216 195.866 63.16 196.221 63.0369C196.581 62.9091 196.891 62.7197 197.151 62.4688C197.412 62.2131 197.613 61.8958 197.755 61.517L199.374 61.9716C199.204 62.5208 198.918 63.0038 198.515 63.4205C198.113 63.8324 197.615 64.1544 197.024 64.3864C196.432 64.6136 195.767 64.7273 195.028 64.7273ZM209.396 58.2784V59.8409H203.373V58.2784H209.396ZM203.771 53.5909V64.5H202.095V53.5909H203.771ZM210.674 53.5909V64.5H208.998V53.5909H210.674ZM221.036 58.2784V59.8409H215.014V58.2784H221.036ZM215.411 53.5909V64.5H213.735V53.5909H215.411ZM222.315 53.5909V64.5H220.639V53.5909H222.315ZM229.808 64.7273C228.823 64.7273 227.959 64.4929 227.215 64.0241C226.477 63.5554 225.899 62.8996 225.482 62.0568C225.07 61.214 224.865 60.2292 224.865 59.1023C224.865 57.9659 225.07 56.974 225.482 56.1264C225.899 55.2789 226.477 54.6207 227.215 54.152C227.959 53.6832 228.823 53.4489 229.808 53.4489C230.793 53.4489 231.654 53.6832 232.393 54.152C233.136 54.6207 233.714 55.2789 234.126 56.1264C234.543 56.974 234.751 57.9659 234.751 59.1023C234.751 60.2292 234.543 61.214 234.126 62.0568C233.714 62.8996 233.136 63.5554 232.393 64.0241C231.654 64.4929 230.793 64.7273 229.808 64.7273ZM229.808 63.2216C230.556 63.2216 231.171 63.0298 231.654 62.6463C232.137 62.2628 232.495 61.7585 232.727 61.1335C232.959 60.5085 233.075 59.8314 233.075 59.1023C233.075 58.3731 232.959 57.6937 232.727 57.0639C232.495 56.4342 232.137 55.9252 231.654 55.5369C231.171 55.1487 230.556 54.9545 229.808 54.9545C229.06 54.9545 228.444 55.1487 227.961 55.5369C227.478 55.9252 227.121 56.4342 226.889 57.0639C226.657 57.6937 226.541 58.3731 226.541 59.1023C226.541 59.8314 226.657 60.5085 226.889 61.1335C227.121 61.7585 227.478 62.2628 227.961 62.6463C228.444 63.0298 229.06 63.2216 229.808 63.2216ZM244.042 53.5909V55.1534H238.986V64.5H237.309V53.5909H244.042ZM250.355 64.7273C249.37 64.7273 248.506 64.4929 247.762 64.0241C247.024 63.5554 246.446 62.8996 246.029 62.0568C245.617 61.214 245.411 60.2292 245.411 59.1023C245.411 57.9659 245.617 56.974 246.029 56.1264C246.446 55.2789 247.024 54.6207 247.762 54.152C248.506 53.6832 249.37 53.4489 250.355 53.4489C251.339 53.4489 252.201 53.6832 252.94 54.152C253.683 54.6207 254.261 55.2789 254.673 56.1264C255.089 56.974 255.298 57.9659 255.298 59.1023C255.298 60.2292 255.089 61.214 254.673 62.0568C254.261 62.8996 253.683 63.5554 252.94 64.0241C252.201 64.4929 251.339 64.7273 250.355 64.7273ZM250.355 63.2216C251.103 63.2216 251.718 63.0298 252.201 62.6463C252.684 62.2628 253.042 61.7585 253.274 61.1335C253.506 60.5085 253.622 59.8314 253.622 59.1023C253.622 58.3731 253.506 57.6937 253.274 57.0639C253.042 56.4342 252.684 55.9252 252.201 55.5369C251.718 55.1487 251.103 54.9545 250.355 54.9545C249.606 54.9545 248.991 55.1487 248.508 55.5369C248.025 55.9252 247.668 56.4342 247.436 57.0639C247.204 57.6937 247.088 58.3731 247.088 59.1023C247.088 59.8314 247.204 60.5085 247.436 61.1335C247.668 61.7585 248.025 62.2628 248.508 62.6463C248.991 63.0298 249.606 63.2216 250.355 63.2216ZM263.481 64.5V53.5909H272.061V64.5H270.385V55.1534H265.157V64.5H263.481ZM275.122 68.5909V53.5909H276.741V55.3239H276.94C277.063 55.1345 277.234 54.893 277.452 54.5994C277.674 54.3011 277.991 54.036 278.403 53.804C278.82 53.5672 279.383 53.4489 280.094 53.4489C281.012 53.4489 281.822 53.6785 282.523 54.1378C283.223 54.5971 283.77 55.2481 284.163 56.0909C284.556 56.9337 284.753 57.928 284.753 59.0739C284.753 60.2292 284.556 61.2306 284.163 62.0781C283.77 62.9209 283.226 63.5743 282.53 64.0384C281.834 64.4976 281.031 64.7273 280.122 64.7273C279.421 64.7273 278.86 64.6113 278.439 64.3793C278.017 64.1425 277.693 63.875 277.466 63.5767C277.238 63.2737 277.063 63.0227 276.94 62.8239H276.798V68.5909H275.122ZM276.77 59.0455C276.77 59.8693 276.89 60.5961 277.132 61.2259C277.373 61.8509 277.726 62.3409 278.19 62.696C278.654 63.0464 279.222 63.2216 279.895 63.2216C280.595 63.2216 281.18 63.0369 281.649 62.6676C282.122 62.2936 282.478 61.7917 282.714 61.1619C282.956 60.5275 283.077 59.822 283.077 59.0455C283.077 58.2784 282.958 57.5871 282.721 56.9716C282.489 56.3513 282.137 55.8613 281.663 55.5014C281.194 55.1368 280.605 54.9545 279.895 54.9545C279.213 54.9545 278.64 55.1274 278.176 55.473C277.712 55.8139 277.362 56.2921 277.125 56.9077C276.888 57.5185 276.77 58.2311 276.77 59.0455ZM291.741 64.7273C290.756 64.7273 289.892 64.4929 289.149 64.0241C288.41 63.5554 287.833 62.8996 287.416 62.0568C287.004 61.214 286.798 60.2292 286.798 59.1023C286.798 57.9659 287.004 56.974 287.416 56.1264C287.833 55.2789 288.41 54.6207 289.149 54.152C289.892 53.6832 290.756 53.4489 291.741 53.4489C292.726 53.4489 293.588 53.6832 294.327 54.152C295.07 54.6207 295.648 55.2789 296.059 56.1264C296.476 56.974 296.684 57.9659 296.684 59.1023C296.684 60.2292 296.476 61.214 296.059 62.0568C295.648 62.8996 295.07 63.5554 294.327 64.0241C293.588 64.4929 292.726 64.7273 291.741 64.7273ZM291.741 63.2216C292.489 63.2216 293.105 63.0298 293.588 62.6463C294.071 62.2628 294.428 61.7585 294.66 61.1335C294.892 60.5085 295.008 59.8314 295.008 59.1023C295.008 58.3731 294.892 57.6937 294.66 57.0639C294.428 56.4342 294.071 55.9252 293.588 55.5369C293.105 55.1487 292.489 54.9545 291.741 54.9545C290.993 54.9545 290.378 55.1487 289.895 55.5369C289.412 55.9252 289.054 56.4342 288.822 57.0639C288.59 57.6937 288.474 58.3731 288.474 59.1023C288.474 59.8314 288.59 60.5085 288.822 61.1335C289.054 61.7585 289.412 62.2628 289.895 62.6463C290.378 63.0298 290.993 63.2216 291.741 63.2216ZM300.919 62.0284L306.175 53.5909H308.107V64.5H306.431V56.0625L301.203 64.5H299.243V53.5909H300.919V62.0284ZM310.495 61.7159H312.285C312.323 62.2083 312.545 62.5824 312.952 62.8381C313.364 63.0938 313.899 63.2216 314.557 63.2216C315.23 63.2216 315.805 63.0843 316.283 62.8097C316.761 62.5303 317.001 62.0805 317.001 61.4602C317.001 61.0956 316.911 60.7784 316.731 60.5085C316.551 60.2339 316.297 60.0208 315.971 59.8693C315.644 59.7178 315.258 59.642 314.813 59.642H312.938V58.1364H314.813C315.481 58.1364 315.973 57.9848 316.29 57.6818C316.612 57.3788 316.773 57 316.773 56.5455C316.773 56.0578 316.6 55.6671 316.255 55.3736C315.909 55.0753 315.419 54.9261 314.785 54.9261C314.145 54.9261 313.613 55.0705 313.187 55.3594C312.76 55.6435 312.536 56.0104 312.512 56.4602H310.751C310.769 55.8731 310.949 55.3546 311.29 54.9048C311.631 54.4503 312.095 54.0952 312.682 53.8395C313.269 53.5791 313.942 53.4489 314.699 53.4489C315.466 53.4489 316.132 53.5838 316.695 53.8537C317.263 54.1188 317.701 54.4811 318.009 54.9403C318.322 55.3949 318.478 55.911 318.478 56.4886C318.478 57.1042 318.305 57.6013 317.959 57.9801C317.614 58.3589 317.18 58.6288 316.66 58.7898V58.9034C317.072 58.9318 317.429 59.0644 317.732 59.3011C318.04 59.5331 318.279 59.8385 318.449 60.2173C318.62 60.5914 318.705 61.0057 318.705 61.4602C318.705 62.1231 318.528 62.7008 318.172 63.1932C317.817 63.6809 317.33 64.0597 316.709 64.3295C316.089 64.5947 315.381 64.7273 314.586 64.7273C313.814 64.7273 313.123 64.6018 312.512 64.3509C311.901 64.0952 311.416 63.7424 311.056 63.2926C310.701 62.8381 310.514 62.3125 310.495 61.7159ZM321.059 64.5V53.5909H325.52C326.694 53.5909 327.627 53.8561 328.318 54.3864C329.009 54.9167 329.355 55.6174 329.355 56.4886C329.355 57.1515 329.158 57.6652 328.765 58.0298C328.372 58.3897 327.868 58.6335 327.253 58.7614C327.655 58.8182 328.046 58.9602 328.425 59.1875C328.808 59.4148 329.125 59.7273 329.376 60.125C329.627 60.518 329.753 61.0009 329.753 61.5739C329.753 62.1326 329.611 62.6321 329.327 63.0724C329.042 63.5128 328.635 63.8608 328.105 64.1165C327.575 64.3722 326.94 64.5 326.202 64.5H321.059ZM322.65 62.9659H326.202C326.779 62.9659 327.231 62.8286 327.558 62.554C327.885 62.2794 328.048 61.9053 328.048 61.4318C328.048 60.8684 327.885 60.4257 327.558 60.1037C327.231 59.777 326.779 59.6136 326.202 59.6136H322.65V62.9659ZM322.65 58.1648H325.52C325.97 58.1648 326.355 58.1032 326.677 57.9801C326.999 57.8523 327.246 57.6723 327.416 57.4403C327.591 57.2036 327.679 56.9242 327.679 56.6023C327.679 56.143 327.487 55.7831 327.104 55.5227C326.72 55.2576 326.192 55.125 325.52 55.125H322.65V58.1648ZM336.722 64.7273C335.737 64.7273 334.873 64.4929 334.129 64.0241C333.391 63.5554 332.813 62.8996 332.396 62.0568C331.985 61.214 331.779 60.2292 331.779 59.1023C331.779 57.9659 331.985 56.974 332.396 56.1264C332.813 55.2789 333.391 54.6207 334.129 54.152C334.873 53.6832 335.737 53.4489 336.722 53.4489C337.707 53.4489 338.568 53.6832 339.307 54.152C340.05 54.6207 340.628 55.2789 341.04 56.1264C341.457 56.974 341.665 57.9659 341.665 59.1023C341.665 60.2292 341.457 61.214 341.04 62.0568C340.628 62.8996 340.05 63.5554 339.307 64.0241C338.568 64.4929 337.707 64.7273 336.722 64.7273ZM336.722 63.2216C337.47 63.2216 338.085 63.0298 338.568 62.6463C339.051 62.2628 339.409 61.7585 339.641 61.1335C339.873 60.5085 339.989 59.8314 339.989 59.1023C339.989 58.3731 339.873 57.6937 339.641 57.0639C339.409 56.4342 339.051 55.9252 338.568 55.5369C338.085 55.1487 337.47 54.9545 336.722 54.9545C335.974 54.9545 335.358 55.1487 334.875 55.5369C334.392 55.9252 334.035 56.4342 333.803 57.0639C333.571 57.6937 333.455 58.3731 333.455 59.1023C333.455 59.8314 333.571 60.5085 333.803 61.1335C334.035 61.7585 334.392 62.2628 334.875 62.6463C335.358 63.0298 335.974 63.2216 336.722 63.2216ZM343.059 67.625V62.9375H343.968C344.19 62.7055 344.382 62.4545 344.543 62.1847C344.704 61.9148 344.844 61.5952 344.962 61.2259C345.085 60.8518 345.189 60.3973 345.275 59.8622C345.36 59.3224 345.436 58.6714 345.502 57.9091L345.871 53.5909H352.803V62.9375H354.479V67.625H352.803V64.5H344.735V67.625H343.059ZM345.871 62.9375H351.127V55.1534H347.434L347.15 57.9091C347.031 59.0502 346.885 60.0469 346.709 60.8991C346.534 61.7514 346.255 62.4309 345.871 62.9375ZM361.136 64.7273C360.113 64.7273 359.232 64.4858 358.494 64.0028C357.755 63.5199 357.187 62.8546 356.789 62.0071C356.392 61.1596 356.193 60.1913 356.193 59.1023C356.193 57.9943 356.396 57.0166 356.803 56.169C357.215 55.3168 357.788 54.6515 358.522 54.1733C359.261 53.6903 360.123 53.4489 361.107 53.4489C361.874 53.4489 362.566 53.5909 363.181 53.875C363.797 54.1591 364.301 54.5568 364.694 55.0682C365.087 55.5795 365.331 56.1761 365.426 56.858H363.749C363.622 56.3608 363.338 55.9205 362.897 55.5369C362.462 55.1487 361.874 54.9545 361.136 54.9545C360.482 54.9545 359.91 55.125 359.417 55.4659C358.929 55.8021 358.548 56.2779 358.274 56.8935C358.004 57.5043 357.869 58.2216 357.869 59.0455C357.869 59.8883 358.001 60.6222 358.267 61.2472C358.536 61.8722 358.915 62.3575 359.403 62.7031C359.895 63.0488 360.473 63.2216 361.136 63.2216C361.571 63.2216 361.967 63.1458 362.322 62.9943C362.677 62.8428 362.978 62.625 363.224 62.3409C363.47 62.0568 363.645 61.7159 363.749 61.3182H365.426C365.331 61.9621 365.097 62.5421 364.722 63.0582C364.353 63.5696 363.863 63.9768 363.252 64.2798C362.646 64.5781 361.941 64.7273 361.136 64.7273ZM367.017 55.1534V53.5909H375.88V55.1534H372.301V64.5H370.624V55.1534H367.017ZM378.325 64.5V53.5909H382.785C383.96 53.5909 384.892 53.8561 385.584 54.3864C386.275 54.9167 386.621 55.6174 386.621 56.4886C386.621 57.1515 386.424 57.6652 386.031 58.0298C385.638 58.3897 385.134 58.6335 384.518 58.7614C384.921 58.8182 385.311 58.9602 385.69 59.1875C386.074 59.4148 386.391 59.7273 386.642 60.125C386.893 60.518 387.018 61.0009 387.018 61.5739C387.018 62.1326 386.876 62.6321 386.592 63.0724C386.308 63.5128 385.901 63.8608 385.371 64.1165C384.84 64.3722 384.206 64.5 383.467 64.5H378.325ZM379.916 62.9659H383.467C384.045 62.9659 384.497 62.8286 384.824 62.554C385.15 62.2794 385.314 61.9053 385.314 61.4318C385.314 60.8684 385.15 60.4257 384.824 60.1037C384.497 59.777 384.045 59.6136 383.467 59.6136H379.916V62.9659ZM379.916 58.1648H382.785C383.235 58.1648 383.621 58.1032 383.943 57.9801C384.265 57.8523 384.511 57.6723 384.682 57.4403C384.857 57.2036 384.944 56.9242 384.944 56.6023C384.944 56.143 384.753 55.7831 384.369 55.5227C383.986 55.2576 383.458 55.125 382.785 55.125H379.916V58.1648ZM392.766 64.7557C392.075 64.7557 391.447 64.6255 390.884 64.3651C390.32 64.0999 389.873 63.7188 389.541 63.2216C389.21 62.7197 389.044 62.1136 389.044 61.4034C389.044 60.7784 389.167 60.2718 389.414 59.8835C389.66 59.4905 389.989 59.1828 390.401 58.9602C390.813 58.7377 391.267 58.572 391.764 58.4631C392.266 58.3494 392.771 58.2595 393.277 58.1932C393.94 58.108 394.477 58.044 394.889 58.0014C395.306 57.9541 395.609 57.8759 395.798 57.767C395.993 57.6581 396.09 57.4687 396.09 57.1989V57.142C396.09 56.4413 395.898 55.8968 395.514 55.5085C395.136 55.1203 394.56 54.9261 393.789 54.9261C392.988 54.9261 392.361 55.1013 391.906 55.4517C391.452 55.8021 391.132 56.1761 390.948 56.5739L389.357 56.0057C389.641 55.3428 390.02 54.8267 390.493 54.4574C390.971 54.0833 391.492 53.8229 392.056 53.6761C392.624 53.5246 393.182 53.4489 393.732 53.4489C394.082 53.4489 394.485 53.4915 394.939 53.5767C395.398 53.6572 395.841 53.8253 396.267 54.081C396.698 54.3366 397.056 54.7225 397.34 55.2386C397.624 55.7547 397.766 56.446 397.766 57.3125V64.5H396.09V63.0227H396.004C395.891 63.2595 395.701 63.5128 395.436 63.7827C395.171 64.0526 394.818 64.2822 394.378 64.4716C393.938 64.661 393.4 64.7557 392.766 64.7557ZM393.021 63.25C393.684 63.25 394.243 63.1198 394.698 62.8594C395.157 62.599 395.503 62.2628 395.735 61.8509C395.971 61.4389 396.09 61.0057 396.09 60.5511V59.017C396.019 59.1023 395.862 59.1804 395.621 59.2514C395.384 59.3177 395.11 59.3769 394.797 59.429C394.489 59.4763 394.189 59.5189 393.895 59.5568C393.606 59.59 393.372 59.6184 393.192 59.642C392.756 59.6989 392.349 59.7912 391.97 59.919C391.596 60.0421 391.293 60.2292 391.061 60.4801C390.834 60.7263 390.72 61.0625 390.72 61.4886C390.72 62.071 390.936 62.5114 391.367 62.8097C391.802 63.1032 392.354 63.25 393.021 63.25Z" fill="#2B2D33"/>
<rect x="73.166" y="99.5" width="73" height="24" fill="#B3B3B3"/>
<rect x="149.166" y="99.5" width="73" height="24" fill="#B3B3B3"/>
<rect x="225.166" y="99.5" width="73" height="24" fill="#B3B3B3"/>
<rect x="301.166" y="99.5" width="73" height="24" fill="#B3B3B3"/>
<rect x="377.166" y="99.5" width="73" height="24" fill="#B3B3B3"/>
<rect x="73.166" y="131.5" width="73" height="24" fill="#B3B3B3"/>
<rect x="149.166" y="131.5" width="73" height="24" fill="#B3B3B3"/>
<rect x="225.166" y="131.5" width="73" height="24" fill="#B3B3B3"/>
<rect x="301.166" y="131.5" width="73" height="24" fill="#B3B3B3"/>
<rect x="377.166" y="131.5" width="73" height="24" fill="#B3B3B3"/>
<rect x="73.166" y="163.5" width="73" height="24" fill="white"/>
<rect x="149.166" y="163.5" width="73" height="24" fill="white"/>
<rect x="225.166" y="163.5" width="73" height="24" fill="white"/>
<rect x="301.166" y="163.5" width="73" height="24" fill="white"/>
<rect x="377.166" y="163.5" width="73" height="24" fill="white"/>
<rect x="73.166" y="195.5" width="73" height="24" fill="#B3B3B3"/>
<rect x="149.166" y="195.5" width="73" height="24" fill="#B3B3B3"/>
<rect x="225.166" y="195.5" width="73" height="24" fill="#B3B3B3"/>
<rect x="301.166" y="195.5" width="73" height="24" fill="#B3B3B3"/>
<rect x="377.166" y="195.5" width="73" height="24" fill="#B3B3B3"/>
<rect x="73.166" y="227.5" width="73" height="24" fill="#B3B3B3"/>
<rect x="149.166" y="227.5" width="73" height="24" fill="#B3B3B3"/>
<rect x="225.166" y="227.5" width="73" height="24" fill="#B3B3B3"/>
<rect x="301.166" y="227.5" width="73" height="24" fill="#B3B3B3"/>
<rect x="377.166" y="227.5" width="73" height="24" fill="#B3B3B3"/>
</svg>
