<svg width="524" height="273" viewBox="0 0 524 273" fill="none" xmlns="http://www.w3.org/2000/svg">
<rect x="0.666016" width="523.333" height="273" rx="8" fill="#D9D9D9"/>
<path d="M21.2058 18.9545V20.517H14.1887V33.5H12.4274V18.9545H21.2058ZM22.5712 37.5909V22.5909H24.1905V24.3239H24.3894C24.5125 24.1345 24.6829 23.893 24.9007 23.5994C25.1233 23.3011 25.4405 23.036 25.8525 22.804C26.2691 22.5672 26.8326 22.4489 27.5428 22.4489C28.4614 22.4489 29.271 22.6785 29.9718 23.1378C30.6725 23.5971 31.2194 24.2481 31.6124 25.0909C32.0054 25.9337 32.2019 26.928 32.2019 28.0739C32.2019 29.2292 32.0054 30.2306 31.6124 31.0781C31.2194 31.9209 30.6749 32.5743 29.9789 33.0384C29.2828 33.4976 28.4803 33.7273 27.5712 33.7273C26.8704 33.7273 26.3094 33.6113 25.888 33.3793C25.4666 33.1425 25.1422 32.875 24.915 32.5767C24.6877 32.2737 24.5125 32.0227 24.3894 31.8239H24.2473V37.5909H22.5712ZM24.2189 28.0455C24.2189 28.8693 24.3397 29.5961 24.5811 30.2259C24.8226 30.8509 25.1754 31.3409 25.6394 31.696C26.1034 32.0464 26.6716 32.2216 27.3439 32.2216C28.0447 32.2216 28.6294 32.0369 29.0982 31.6676C29.5717 31.2936 29.9268 30.7917 30.1635 30.1619C30.405 29.5275 30.5257 28.822 30.5257 28.0455C30.5257 27.2784 30.4074 26.5871 30.1706 25.9716C29.9386 25.3513 29.5859 24.8613 29.1124 24.5014C28.6436 24.1368 28.0542 23.9545 27.3439 23.9545C26.6621 23.9545 26.0892 24.1274 25.6252 24.473C25.1612 24.8139 24.8108 25.2921 24.574 25.9077C24.3373 26.5185 24.2189 27.2311 24.2189 28.0455ZM37.9689 33.7557C37.2776 33.7557 36.6503 33.6255 36.0868 33.3651C35.5234 33.0999 35.0759 32.7188 34.7445 32.2216C34.4131 31.7197 34.2473 31.1136 34.2473 30.4034C34.2473 29.7784 34.3704 29.2718 34.6167 28.8835C34.8629 28.4905 35.1919 28.1828 35.6039 27.9602C36.0158 27.7377 36.4703 27.572 36.9675 27.4631C37.4694 27.3494 37.9737 27.2595 38.4803 27.1932C39.1432 27.108 39.6806 27.044 40.0925 27.0014C40.5092 26.9541 40.8122 26.8759 41.0016 26.767C41.1957 26.6581 41.2928 26.4687 41.2928 26.1989V26.142C41.2928 25.4413 41.101 24.8968 40.7175 24.5085C40.3387 24.1203 39.7634 23.9261 38.9917 23.9261C38.1915 23.9261 37.5641 24.1013 37.1096 24.4517C36.655 24.8021 36.3354 25.1761 36.1507 25.5739L34.5598 25.0057C34.8439 24.3428 35.2227 23.8267 35.6962 23.4574C36.1744 23.0833 36.6953 22.8229 37.2587 22.6761C37.8269 22.5246 38.3856 22.4489 38.9348 22.4489C39.2852 22.4489 39.6877 22.4915 40.1422 22.5767C40.6015 22.6572 41.0442 22.8253 41.4703 23.081C41.9012 23.3366 42.2587 23.7225 42.5428 24.2386C42.8269 24.7547 42.9689 25.446 42.9689 26.3125V33.5H41.2928V32.0227H41.2076C41.0939 32.2595 40.9045 32.5128 40.6394 32.7827C40.3742 33.0526 40.0215 33.2822 39.5811 33.4716C39.1408 33.661 38.6034 33.7557 37.9689 33.7557ZM38.2246 32.25C38.8875 32.25 39.4462 32.1198 39.9007 31.8594C40.36 31.599 40.7057 31.2628 40.9377 30.8509C41.1744 30.4389 41.2928 30.0057 41.2928 29.5511V28.017C41.2218 28.1023 41.0655 28.1804 40.824 28.2514C40.5873 28.3177 40.3127 28.3769 40.0002 28.429C39.6924 28.4763 39.3917 28.5189 39.0982 28.5568C38.8094 28.59 38.575 28.6184 38.3951 28.642C37.9595 28.6989 37.5523 28.7912 37.1735 28.919C36.7994 29.0421 36.4964 29.2292 36.2644 29.4801C36.0371 29.7263 35.9235 30.0625 35.9235 30.4886C35.9235 31.071 36.1389 31.5114 36.5698 31.8097C37.0054 32.1032 37.557 32.25 38.2246 32.25ZM50.46 37.2216V18.9545H52.1362V37.2216H50.46ZM50.46 33.7273C49.7214 33.7273 49.0491 33.5947 48.443 33.3295C47.8369 33.0597 47.3161 32.6785 46.8805 32.1861C46.4449 31.6889 46.1087 31.0947 45.872 30.4034C45.6352 29.7121 45.5169 28.9451 45.5169 28.1023C45.5169 27.25 45.6352 26.4782 45.872 25.7869C46.1087 25.0909 46.4449 24.4943 46.8805 23.9972C47.3161 23.5 47.8369 23.1188 48.443 22.8537C49.0491 22.5838 49.7214 22.4489 50.46 22.4489H50.9714V33.7273H50.46ZM50.46 32.2216H50.7441V23.9545H50.46C49.9013 23.9545 49.416 24.0682 49.0041 24.2955C48.5922 24.518 48.2512 24.8234 47.9814 25.2116C47.7162 25.5952 47.5173 26.0355 47.3848 26.5327C47.2569 27.0298 47.193 27.553 47.193 28.1023C47.193 28.8314 47.309 29.5085 47.541 30.1335C47.773 30.7585 48.1305 31.2628 48.6135 31.6463C49.0964 32.0298 49.7119 32.2216 50.46 32.2216ZM52.1362 33.7273H51.6248V22.4489H52.1362C52.8748 22.4489 53.5472 22.5838 54.1532 22.8537C54.7593 23.1188 55.2801 23.5 55.7157 23.9972C56.1513 24.4943 56.4875 25.0909 56.7243 25.7869C56.961 26.4782 57.0794 27.25 57.0794 28.1023C57.0794 28.9451 56.961 29.7121 56.7243 30.4034C56.4875 31.0947 56.1513 31.6889 55.7157 32.1861C55.2801 32.6785 54.7593 33.0597 54.1532 33.3295C53.5472 33.5947 52.8748 33.7273 52.1362 33.7273ZM52.1362 32.2216C52.6996 32.2216 53.185 32.1127 53.5922 31.8949C54.0041 31.6723 54.3426 31.3693 54.6078 30.9858C54.8777 30.5975 55.0765 30.1572 55.2044 29.6648C55.3369 29.1676 55.4032 28.6468 55.4032 28.1023C55.4032 27.3731 55.2872 26.6937 55.0552 26.0639C54.8232 25.4342 54.4657 24.9252 53.9828 24.5369C53.4998 24.1487 52.8843 23.9545 52.1362 23.9545H51.8521V32.2216H52.1362ZM61.3176 31.0284L66.5733 22.5909H68.5051V33.5H66.829V25.0625L61.6017 33.5H59.6415V22.5909H61.3176V31.0284ZM71.5751 33.5V22.5909H73.2512V27.3352H74.3592L78.2797 22.5909H80.4387L76.0353 27.8466L80.4956 33.5H78.3365L74.7569 28.8977H73.2512V33.5H71.5751ZM87.9423 33.5V22.5909H96.5218V33.5H94.8457V24.1534H89.6184V33.5H87.9423ZM99.5829 37.5909V22.5909H101.202V24.3239H101.401C101.524 24.1345 101.695 23.893 101.912 23.5994C102.135 23.3011 102.452 23.036 102.864 22.804C103.281 22.5672 103.844 22.4489 104.555 22.4489C105.473 22.4489 106.283 22.6785 106.983 23.1378C107.684 23.5971 108.231 24.2481 108.624 25.0909C109.017 25.9337 109.214 26.928 109.214 28.0739C109.214 29.2292 109.017 30.2306 108.624 31.0781C108.231 31.9209 107.687 32.5743 106.991 33.0384C106.295 33.4976 105.492 33.7273 104.583 33.7273C103.882 33.7273 103.321 33.6113 102.9 33.3793C102.478 33.1425 102.154 32.875 101.927 32.5767C101.699 32.2737 101.524 32.0227 101.401 31.8239H101.259V37.5909H99.5829ZM101.231 28.0455C101.231 28.8693 101.351 29.5961 101.593 30.2259C101.834 30.8509 102.187 31.3409 102.651 31.696C103.115 32.0464 103.683 32.2216 104.356 32.2216C105.056 32.2216 105.641 32.0369 106.11 31.6676C106.583 31.2936 106.939 30.7917 107.175 30.1619C107.417 29.5275 107.537 28.822 107.537 28.0455C107.537 27.2784 107.419 26.5871 107.182 25.9716C106.95 25.3513 106.598 24.8613 106.124 24.5014C105.655 24.1368 105.066 23.9545 104.356 23.9545C103.674 23.9545 103.101 24.1274 102.637 24.473C102.173 24.8139 101.823 25.2921 101.586 25.9077C101.349 26.5185 101.231 27.2311 101.231 28.0455ZM116.202 33.7273C115.217 33.7273 114.353 33.4929 113.61 33.0241C112.871 32.5554 112.294 31.8996 111.877 31.0568C111.465 30.214 111.259 29.2292 111.259 28.1023C111.259 26.9659 111.465 25.974 111.877 25.1264C112.294 24.2789 112.871 23.6207 113.61 23.152C114.353 22.6832 115.217 22.4489 116.202 22.4489C117.187 22.4489 118.049 22.6832 118.787 23.152C119.531 23.6207 120.108 24.2789 120.52 25.1264C120.937 25.974 121.145 26.9659 121.145 28.1023C121.145 29.2292 120.937 30.214 120.52 31.0568C120.108 31.8996 119.531 32.5554 118.787 33.0241C118.049 33.4929 117.187 33.7273 116.202 33.7273ZM116.202 32.2216C116.95 32.2216 117.566 32.0298 118.049 31.6463C118.532 31.2628 118.889 30.7585 119.121 30.1335C119.353 29.5085 119.469 28.8314 119.469 28.1023C119.469 27.3731 119.353 26.6937 119.121 26.0639C118.889 25.4342 118.532 24.9252 118.049 24.5369C117.566 24.1487 116.95 23.9545 116.202 23.9545C115.454 23.9545 114.839 24.1487 114.356 24.5369C113.873 24.9252 113.515 25.4342 113.283 26.0639C113.051 26.6937 112.935 27.3731 112.935 28.1023C112.935 28.8314 113.051 29.5085 113.283 30.1335C113.515 30.7585 113.873 31.2628 114.356 31.6463C114.839 32.0298 115.454 32.2216 116.202 32.2216ZM130.437 22.5909V24.1534H125.38V33.5H123.704V22.5909H130.437ZM140.185 27.2784V28.8409H134.162V27.2784H140.185ZM134.56 22.5909V33.5H132.884V22.5909H134.56ZM141.463 22.5909V33.5H139.787V22.5909H141.463ZM148.956 33.7273C147.971 33.7273 147.107 33.4929 146.364 33.0241C145.625 32.5554 145.048 31.8996 144.631 31.0568C144.219 30.214 144.013 29.2292 144.013 28.1023C144.013 26.9659 144.219 25.974 144.631 25.1264C145.048 24.2789 145.625 23.6207 146.364 23.152C147.107 22.6832 147.971 22.4489 148.956 22.4489C149.941 22.4489 150.803 22.6832 151.541 23.152C152.285 23.6207 152.862 24.2789 153.274 25.1264C153.691 25.974 153.899 26.9659 153.899 28.1023C153.899 29.2292 153.691 30.214 153.274 31.0568C152.862 31.8996 152.285 32.5554 151.541 33.0241C150.803 33.4929 149.941 33.7273 148.956 33.7273ZM148.956 32.2216C149.704 32.2216 150.32 32.0298 150.803 31.6463C151.286 31.2628 151.643 30.7585 151.875 30.1335C152.107 29.5085 152.223 28.8314 152.223 28.1023C152.223 27.3731 152.107 26.6937 151.875 26.0639C151.643 25.4342 151.286 24.9252 150.803 24.5369C150.32 24.1487 149.704 23.9545 148.956 23.9545C148.208 23.9545 147.593 24.1487 147.11 24.5369C146.627 24.9252 146.269 25.4342 146.037 26.0639C145.805 26.6937 145.689 27.3731 145.689 28.1023C145.689 28.8314 145.805 29.5085 146.037 30.1335C146.269 30.7585 146.627 31.2628 147.11 31.6463C147.593 32.0298 148.208 32.2216 148.956 32.2216ZM155.776 30.7159H157.566C157.604 31.2083 157.826 31.5824 158.233 31.8381C158.645 32.0938 159.18 32.2216 159.839 32.2216C160.511 32.2216 161.086 32.0843 161.564 31.8097C162.043 31.5303 162.282 31.0805 162.282 30.4602C162.282 30.0956 162.192 29.7784 162.012 29.5085C161.832 29.2339 161.579 29.0208 161.252 28.8693C160.925 28.7178 160.539 28.642 160.094 28.642H158.219V27.1364H160.094C160.762 27.1364 161.254 26.9848 161.572 26.6818C161.894 26.3788 162.055 26 162.055 25.5455C162.055 25.0578 161.882 24.6671 161.536 24.3736C161.19 24.0753 160.7 23.9261 160.066 23.9261C159.427 23.9261 158.894 24.0705 158.468 24.3594C158.042 24.6435 157.817 25.0104 157.793 25.4602H156.032C156.051 24.8731 156.231 24.3546 156.572 23.9048C156.912 23.4503 157.376 23.0952 157.964 22.8395C158.551 22.5791 159.223 22.4489 159.981 22.4489C160.748 22.4489 161.413 22.5838 161.976 22.8537C162.545 23.1188 162.983 23.4811 163.29 23.9403C163.603 24.3949 163.759 24.911 163.759 25.4886C163.759 26.1042 163.586 26.6013 163.241 26.9801C162.895 27.3589 162.462 27.6288 161.941 27.7898V27.9034C162.353 27.9318 162.71 28.0644 163.013 28.3011C163.321 28.5331 163.56 28.8385 163.731 29.2173C163.901 29.5914 163.986 30.0057 163.986 30.4602C163.986 31.1231 163.809 31.7008 163.454 32.1932C163.099 32.6809 162.611 33.0597 161.991 33.3295C161.37 33.5947 160.662 33.7273 159.867 33.7273C159.095 33.7273 158.404 33.6018 157.793 33.3509C157.182 33.0952 156.697 32.7424 156.337 32.2926C155.982 31.8381 155.795 31.3125 155.776 30.7159ZM169.551 33.7557C168.86 33.7557 168.232 33.6255 167.669 33.3651C167.105 33.0999 166.658 32.7188 166.327 32.2216C165.995 31.7197 165.829 31.1136 165.829 30.4034C165.829 29.7784 165.952 29.2718 166.199 28.8835C166.445 28.4905 166.774 28.1828 167.186 27.9602C167.598 27.7377 168.052 27.572 168.55 27.4631C169.051 27.3494 169.556 27.2595 170.062 27.1932C170.725 27.108 171.263 27.044 171.675 27.0014C172.091 26.9541 172.394 26.8759 172.584 26.767C172.778 26.6581 172.875 26.4687 172.875 26.1989V26.142C172.875 25.4413 172.683 24.8968 172.3 24.5085C171.921 24.1203 171.345 23.9261 170.574 23.9261C169.773 23.9261 169.146 24.1013 168.692 24.4517C168.237 24.8021 167.917 25.1761 167.733 25.5739L166.142 25.0057C166.426 24.3428 166.805 23.8267 167.278 23.4574C167.756 23.0833 168.277 22.8229 168.841 22.6761C169.409 22.5246 169.968 22.4489 170.517 22.4489C170.867 22.4489 171.27 22.4915 171.724 22.5767C172.184 22.6572 172.626 22.8253 173.052 23.081C173.483 23.3366 173.841 23.7225 174.125 24.2386C174.409 24.7547 174.551 25.446 174.551 26.3125V33.5H172.875V32.0227H172.79C172.676 32.2595 172.487 32.5128 172.221 32.7827C171.956 33.0526 171.604 33.2822 171.163 33.4716C170.723 33.661 170.185 33.7557 169.551 33.7557ZM169.807 32.25C170.47 32.25 171.028 32.1198 171.483 31.8594C171.942 31.599 172.288 31.2628 172.52 30.8509C172.756 30.4389 172.875 30.0057 172.875 29.5511V28.017C172.804 28.1023 172.648 28.1804 172.406 28.2514C172.169 28.3177 171.895 28.3769 171.582 28.429C171.274 28.4763 170.974 28.5189 170.68 28.5568C170.391 28.59 170.157 28.6184 169.977 28.642C169.541 28.6989 169.134 28.7912 168.756 28.919C168.381 29.0421 168.078 29.2292 167.846 29.4801C167.619 29.7263 167.506 30.0625 167.506 30.4886C167.506 31.071 167.721 31.5114 168.152 31.8097C168.587 32.1032 169.139 32.25 169.807 32.25ZM182.752 18.2727L178.065 35.6875H176.531L181.218 18.2727H182.752ZM189.171 33.7273C188.148 33.7273 187.268 33.4858 186.529 33.0028C185.79 32.5199 185.222 31.8546 184.824 31.0071C184.427 30.1596 184.228 29.1913 184.228 28.1023C184.228 26.9943 184.431 26.0166 184.839 25.169C185.251 24.3168 185.823 23.6515 186.557 23.1733C187.296 22.6903 188.158 22.4489 189.143 22.4489C189.91 22.4489 190.601 22.5909 191.216 22.875C191.832 23.1591 192.336 23.5568 192.729 24.0682C193.122 24.5795 193.366 25.1761 193.461 25.858H191.785C191.657 25.3608 191.373 24.9205 190.932 24.5369C190.497 24.1487 189.91 23.9545 189.171 23.9545C188.518 23.9545 187.945 24.125 187.452 24.4659C186.965 24.8021 186.583 25.2779 186.309 25.8935C186.039 26.5043 185.904 27.2216 185.904 28.0455C185.904 28.8883 186.037 29.6222 186.302 30.2472C186.572 30.8722 186.95 31.3575 187.438 31.7031C187.93 32.0488 188.508 32.2216 189.171 32.2216C189.607 32.2216 190.002 32.1458 190.357 31.9943C190.712 31.8428 191.013 31.625 191.259 31.3409C191.505 31.0568 191.68 30.7159 191.785 30.3182H193.461C193.366 30.9621 193.132 31.5421 192.758 32.0582C192.388 32.5696 191.898 32.9768 191.287 33.2798C190.681 33.5781 189.976 33.7273 189.171 33.7273ZM195.911 33.5V22.5909H204.491V33.5H202.814V24.1534H197.587V33.5H195.911ZM207.552 37.5909V22.5909H209.171V24.3239H209.37C209.493 24.1345 209.663 23.893 209.881 23.5994C210.104 23.3011 210.421 23.036 210.833 22.804C211.25 22.5672 211.813 22.4489 212.523 22.4489C213.442 22.4489 214.251 22.6785 214.952 23.1378C215.653 23.5971 216.2 24.2481 216.593 25.0909C216.986 25.9337 217.182 26.928 217.182 28.0739C217.182 29.2292 216.986 30.2306 216.593 31.0781C216.2 31.9209 215.655 32.5743 214.959 33.0384C214.263 33.4976 213.461 33.7273 212.552 33.7273C211.851 33.7273 211.29 33.6113 210.868 33.3793C210.447 33.1425 210.123 32.875 209.895 32.5767C209.668 32.2737 209.493 32.0227 209.37 31.8239H209.228V37.5909H207.552ZM209.199 28.0455C209.199 28.8693 209.32 29.5961 209.562 30.2259C209.803 30.8509 210.156 31.3409 210.62 31.696C211.084 32.0464 211.652 32.2216 212.324 32.2216C213.025 32.2216 213.61 32.0369 214.079 31.6676C214.552 31.2936 214.907 30.7917 215.144 30.1619C215.385 29.5275 215.506 28.822 215.506 28.0455C215.506 27.2784 215.388 26.5871 215.151 25.9716C214.919 25.3513 214.566 24.8613 214.093 24.5014C213.624 24.1368 213.035 23.9545 212.324 23.9545C211.643 23.9545 211.07 24.1274 210.606 24.473C210.142 24.8139 209.791 25.2921 209.555 25.9077C209.318 26.5185 209.199 27.2311 209.199 28.0455ZM224.171 33.7273C223.186 33.7273 222.322 33.4929 221.579 33.0241C220.84 32.5554 220.262 31.8996 219.846 31.0568C219.434 30.214 219.228 29.2292 219.228 28.1023C219.228 26.9659 219.434 25.974 219.846 25.1264C220.262 24.2789 220.84 23.6207 221.579 23.152C222.322 22.6832 223.186 22.4489 224.171 22.4489C225.156 22.4489 226.018 22.6832 226.756 23.152C227.5 23.6207 228.077 24.2789 228.489 25.1264C228.906 25.974 229.114 26.9659 229.114 28.1023C229.114 29.2292 228.906 30.214 228.489 31.0568C228.077 31.8996 227.5 32.5554 226.756 33.0241C226.018 33.4929 225.156 33.7273 224.171 33.7273ZM224.171 32.2216C224.919 32.2216 225.535 32.0298 226.018 31.6463C226.501 31.2628 226.858 30.7585 227.09 30.1335C227.322 29.5085 227.438 28.8314 227.438 28.1023C227.438 27.3731 227.322 26.6937 227.09 26.0639C226.858 25.4342 226.501 24.9252 226.018 24.5369C225.535 24.1487 224.919 23.9545 224.171 23.9545C223.423 23.9545 222.807 24.1487 222.324 24.5369C221.841 24.9252 221.484 25.4342 221.252 26.0639C221.02 26.6937 220.904 27.3731 220.904 28.1023C220.904 28.8314 221.02 29.5085 221.252 30.1335C221.484 30.7585 221.841 31.2628 222.324 31.6463C222.807 32.0298 223.423 32.2216 224.171 32.2216ZM236.105 33.7273C235.082 33.7273 234.201 33.4858 233.463 33.0028C232.724 32.5199 232.156 31.8546 231.758 31.0071C231.36 30.1596 231.161 29.1913 231.161 28.1023C231.161 26.9943 231.365 26.0166 231.772 25.169C232.184 24.3168 232.757 23.6515 233.491 23.1733C234.23 22.6903 235.091 22.4489 236.076 22.4489C236.843 22.4489 237.535 22.5909 238.15 22.875C238.766 23.1591 239.27 23.5568 239.663 24.0682C240.056 24.5795 240.3 25.1761 240.394 25.858H238.718C238.59 25.3608 238.306 24.9205 237.866 24.5369C237.43 24.1487 236.843 23.9545 236.105 23.9545C235.451 23.9545 234.878 24.125 234.386 24.4659C233.898 24.8021 233.517 25.2779 233.242 25.8935C232.972 26.5043 232.838 27.2216 232.838 28.0455C232.838 28.8883 232.97 29.6222 233.235 30.2472C233.505 30.8722 233.884 31.3575 234.372 31.7031C234.864 32.0488 235.442 32.2216 236.105 32.2216C236.54 32.2216 236.936 32.1458 237.291 31.9943C237.646 31.8428 237.946 31.625 238.193 31.3409C238.439 31.0568 238.614 30.7159 238.718 30.3182H240.394C240.3 30.9621 240.065 31.5421 239.691 32.0582C239.322 32.5696 238.832 32.9768 238.221 33.2798C237.615 33.5781 236.91 33.7273 236.105 33.7273ZM246.055 33.7557C245.364 33.7557 244.736 33.6255 244.173 33.3651C243.609 33.0999 243.162 32.7188 242.83 32.2216C242.499 31.7197 242.333 31.1136 242.333 30.4034C242.333 29.7784 242.456 29.2718 242.703 28.8835C242.949 28.4905 243.278 28.1828 243.69 27.9602C244.102 27.7377 244.556 27.572 245.053 27.4631C245.555 27.3494 246.06 27.2595 246.566 27.1932C247.229 27.108 247.767 27.044 248.178 27.0014C248.595 26.9541 248.898 26.8759 249.088 26.767C249.282 26.6581 249.379 26.4687 249.379 26.1989V26.142C249.379 25.4413 249.187 24.8968 248.803 24.5085C248.425 24.1203 247.849 23.9261 247.078 23.9261C246.277 23.9261 245.65 24.1013 245.195 24.4517C244.741 24.8021 244.421 25.1761 244.237 25.5739L242.646 25.0057C242.93 24.3428 243.309 23.8267 243.782 23.4574C244.26 23.0833 244.781 22.8229 245.345 22.6761C245.913 22.5246 246.472 22.4489 247.021 22.4489C247.371 22.4489 247.774 22.4915 248.228 22.5767C248.687 22.6572 249.13 22.8253 249.556 23.081C249.987 23.3366 250.345 23.7225 250.629 24.2386C250.913 24.7547 251.055 25.446 251.055 26.3125V33.5H249.379V32.0227H249.294C249.18 32.2595 248.99 32.5128 248.725 32.7827C248.46 33.0526 248.107 33.2822 247.667 33.4716C247.227 33.661 246.689 33.7557 246.055 33.7557ZM246.311 32.25C246.973 32.25 247.532 32.1198 247.987 31.8594C248.446 31.599 248.792 31.2628 249.024 30.8509C249.26 30.4389 249.379 30.0057 249.379 29.5511V28.017C249.308 28.1023 249.151 28.1804 248.91 28.2514C248.673 28.3177 248.399 28.3769 248.086 28.429C247.778 28.4763 247.478 28.5189 247.184 28.5568C246.895 28.59 246.661 28.6184 246.481 28.642C246.045 28.6989 245.638 28.7912 245.259 28.919C244.885 29.0421 244.582 29.2292 244.35 29.4801C244.123 29.7263 244.009 30.0625 244.009 30.4886C244.009 31.071 244.225 31.5114 244.656 31.8097C245.091 32.1032 245.643 32.25 246.311 32.25Z" fill="#2B2D33"/>
<rect x="89.832" y="88.5" width="35" height="170" fill="#B3B3B3"/>
<rect x="131.832" y="168.5" width="35" height="90" fill="white"/>
<rect x="223.832" y="143.5" width="35" height="115" fill="#B3B3B3"/>
<rect x="265.832" y="136.5" width="35" height="122" fill="white"/>
<rect x="357.832" y="115.5" width="35" height="143" fill="#B3B3B3"/>
<rect x="399.832" y="88.5" width="35" height="170" fill="white"/>
</svg>
