<svg width="524" height="273" viewBox="0 0 524 273" fill="none" xmlns="http://www.w3.org/2000/svg">
<rect x="0.333984" width="523.333" height="273" rx="8" fill="#D9D9D9"/>
<path d="M20.6465 29L15.6465 22.3239H13.8567V29H12.0953V14.4545H13.8567V20.7614H14.6238L20.4476 14.4545H22.5499L16.6692 20.8466L22.7488 29H20.6465ZM28.008 29.2557C27.3167 29.2557 26.6893 29.1255 26.1259 28.8651C25.5624 28.5999 25.115 28.2188 24.7836 27.7216C24.4521 27.2197 24.2864 26.6136 24.2864 25.9034C24.2864 25.2784 24.4095 24.7718 24.6557 24.3835C24.9019 23.9905 25.231 23.6828 25.6429 23.4602C26.0549 23.2377 26.5094 23.072 27.0066 22.9631C27.5085 22.8494 28.0127 22.7595 28.5194 22.6932C29.1822 22.608 29.7196 22.544 30.1316 22.5014C30.5482 22.4541 30.8513 22.3759 31.0407 22.267C31.2348 22.1581 31.3319 21.9687 31.3319 21.6989V21.642C31.3319 20.9413 31.1401 20.3968 30.7566 20.0085C30.3778 19.6203 29.8025 19.4261 29.0307 19.4261C28.2305 19.4261 27.6032 19.6013 27.1486 19.9517C26.6941 20.3021 26.3745 20.6761 26.1898 21.0739L24.5989 20.5057C24.883 19.8428 25.2618 19.3267 25.7353 18.9574C26.2135 18.5833 26.7343 18.3229 27.2978 18.1761C27.8659 18.0246 28.4247 17.9489 28.9739 17.9489C29.3243 17.9489 29.7267 17.9915 30.1813 18.0767C30.6406 18.1572 31.0833 18.3253 31.5094 18.581C31.9403 18.8366 32.2978 19.2225 32.5819 19.7386C32.8659 20.2547 33.008 20.946 33.008 21.8125V29H31.3319V27.5227H31.2466C31.133 27.7595 30.9436 28.0128 30.6784 28.2827C30.4133 28.5526 30.0605 28.7822 29.6202 28.9716C29.1799 29.161 28.6425 29.2557 28.008 29.2557ZM28.2637 27.75C28.9266 27.75 29.4853 27.6198 29.9398 27.3594C30.3991 27.099 30.7447 26.7628 30.9767 26.3509C31.2135 25.9389 31.3319 25.5057 31.3319 25.0511V23.517C31.2608 23.6023 31.1046 23.6804 30.8631 23.7514C30.6264 23.8177 30.3517 23.8769 30.0392 23.929C29.7315 23.9763 29.4308 24.0189 29.1373 24.0568C28.8484 24.09 28.6141 24.1184 28.4341 24.142C27.9985 24.1989 27.5913 24.2912 27.2125 24.419C26.8385 24.5421 26.5355 24.7292 26.3034 24.9801C26.0762 25.2263 25.9625 25.5625 25.9625 25.9886C25.9625 26.571 26.178 27.0114 26.6088 27.3097C27.0444 27.6032 27.5961 27.75 28.2637 27.75ZM44.4764 18.0909V29H42.8002V18.0909H44.4764ZM43.823 23.2898V24.8523C43.4442 24.9943 43.0678 25.1198 42.6937 25.2287C42.3197 25.3329 41.9267 25.4157 41.5147 25.4773C41.1028 25.5341 40.6506 25.5625 40.1582 25.5625C38.9224 25.5625 37.9305 25.2287 37.1824 24.5611C36.439 23.8935 36.0673 22.892 36.0673 21.5568V18.0625H37.7434V21.5568C37.7434 22.1155 37.85 22.5748 38.063 22.9347C38.2761 23.2945 38.5649 23.562 38.9295 23.7372C39.2941 23.9124 39.7037 24 40.1582 24C40.8684 24 41.51 23.9361 42.0829 23.8082C42.6606 23.6757 43.2406 23.5028 43.823 23.2898ZM52.1255 29.2273C51.0744 29.2273 50.1677 28.9953 49.4054 28.5312C48.6478 28.0625 48.063 27.4091 47.6511 26.571C47.2439 25.7282 47.0403 24.7481 47.0403 23.6307C47.0403 22.5133 47.2439 21.5284 47.6511 20.6761C48.063 19.8191 48.6359 19.1515 49.3699 18.6733C50.1085 18.1903 50.9702 17.9489 51.9551 17.9489C52.5233 17.9489 53.0843 18.0436 53.6383 18.233C54.1923 18.4223 54.6966 18.7301 55.1511 19.1562C55.6056 19.5777 55.9679 20.1364 56.2377 20.8324C56.5076 21.5284 56.6426 22.3854 56.6426 23.4034V24.1136H48.2335V22.6648H54.938C54.938 22.0492 54.8149 21.5 54.5687 21.017C54.3272 20.5341 53.9816 20.1529 53.5318 19.8736C53.0867 19.5942 52.5611 19.4545 51.9551 19.4545C51.2875 19.4545 50.7098 19.6203 50.2221 19.9517C49.7392 20.2784 49.3675 20.7045 49.1071 21.2301C48.8467 21.7557 48.7164 22.3191 48.7164 22.9205V23.8864C48.7164 24.7102 48.8585 25.4086 49.1426 25.9815C49.4314 26.5497 49.8315 26.983 50.3429 27.2812C50.8542 27.5748 51.4484 27.7216 52.1255 27.7216C52.5659 27.7216 52.9636 27.66 53.3187 27.5369C53.6786 27.4091 53.9887 27.2197 54.2491 26.9688C54.5095 26.7131 54.7108 26.3958 54.8528 26.017L56.4721 26.4716C56.3017 27.0208 56.0152 27.5038 55.6127 27.9205C55.2103 28.3324 54.7131 28.6544 54.1213 28.8864C53.5294 29.1136 52.8642 29.2273 52.1255 29.2273ZM63.6241 29.2273C62.6014 29.2273 61.7207 28.9858 60.9821 28.5028C60.2434 28.0199 59.6752 27.3546 59.2775 26.5071C58.8798 25.6596 58.6809 24.6913 58.6809 23.6023C58.6809 22.4943 58.8845 21.5166 59.2917 20.669C59.7037 19.8168 60.2766 19.1515 61.0105 18.6733C61.7491 18.1903 62.6109 17.9489 63.5957 17.9489C64.3627 17.9489 65.054 18.0909 65.6696 18.375C66.2851 18.6591 66.7894 19.0568 67.1824 19.5682C67.5753 20.0795 67.8192 20.6761 67.9139 21.358H66.2377C66.1099 20.8608 65.8258 20.4205 65.3855 20.0369C64.9499 19.6487 64.3627 19.4545 63.6241 19.4545C62.9707 19.4545 62.3978 19.625 61.9054 19.9659C61.4177 20.3021 61.0365 20.7779 60.7619 21.3935C60.492 22.0043 60.3571 22.7216 60.3571 23.5455C60.3571 24.3883 60.4896 25.1222 60.7548 25.7472C61.0247 26.3722 61.4035 26.8575 61.8912 27.2031C62.3836 27.5488 62.9612 27.7216 63.6241 27.7216C64.0597 27.7216 64.4551 27.6458 64.8102 27.4943C65.1653 27.3428 65.466 27.125 65.7122 26.8409C65.9584 26.5568 66.1336 26.2159 66.2377 25.8182H67.9139C67.8192 26.4621 67.5848 27.0421 67.2108 27.5582C66.8414 28.0696 66.3514 28.4768 65.7406 28.7798C65.1345 29.0781 64.429 29.2273 63.6241 29.2273ZM69.5048 19.6534V18.0909H78.3684V19.6534H74.7889V29H73.1127V19.6534H69.5048ZM80.8134 29V18.0909H85.2736C86.4479 18.0909 87.3806 18.3561 88.0719 18.8864C88.7632 19.4167 89.1088 20.1174 89.1088 20.9886C89.1088 21.6515 88.9123 22.1652 88.5194 22.5298C88.1264 22.8897 87.6221 23.1335 87.0066 23.2614C87.409 23.3182 87.7997 23.4602 88.1784 23.6875C88.562 23.9148 88.8792 24.2273 89.1301 24.625C89.3811 25.018 89.5066 25.5009 89.5066 26.0739C89.5066 26.6326 89.3645 27.1321 89.0804 27.5724C88.7963 28.0128 88.3891 28.3608 87.8588 28.6165C87.3285 28.8722 86.6941 29 85.9554 29H80.8134ZM82.4043 27.4659H85.9554C86.5331 27.4659 86.9853 27.3286 87.312 27.054C87.6387 26.7794 87.802 26.4053 87.802 25.9318C87.802 25.3684 87.6387 24.9257 87.312 24.6037C86.9853 24.277 86.5331 24.1136 85.9554 24.1136H82.4043V27.4659ZM82.4043 22.6648H85.2736C85.7234 22.6648 86.1093 22.6032 86.4313 22.4801C86.7533 22.3523 86.9995 22.1723 87.1699 21.9403C87.3451 21.7036 87.4327 21.4242 87.4327 21.1023C87.4327 20.643 87.2409 20.2831 86.8574 20.0227C86.4739 19.7576 85.946 19.625 85.2736 19.625H82.4043V22.6648ZM96.4757 29.2273C95.4908 29.2273 94.6267 28.9929 93.8833 28.5241C93.1447 28.0554 92.5671 27.3996 92.1504 26.5568C91.7385 25.714 91.5325 24.7292 91.5325 23.6023C91.5325 22.4659 91.7385 21.474 92.1504 20.6264C92.5671 19.7789 93.1447 19.1207 93.8833 18.652C94.6267 18.1832 95.4908 17.9489 96.4757 17.9489C97.4605 17.9489 98.3223 18.1832 99.0609 18.652C99.8043 19.1207 100.382 19.7789 100.794 20.6264C101.211 21.474 101.419 22.4659 101.419 23.6023C101.419 24.7292 101.211 25.714 100.794 26.5568C100.382 27.3996 99.8043 28.0554 99.0609 28.5241C98.3223 28.9929 97.4605 29.2273 96.4757 29.2273ZM96.4757 27.7216C97.2238 27.7216 97.8393 27.5298 98.3223 27.1463C98.8052 26.7628 99.1627 26.2585 99.3947 25.6335C99.6267 25.0085 99.7427 24.3314 99.7427 23.6023C99.7427 22.8731 99.6267 22.1937 99.3947 21.5639C99.1627 20.9342 98.8052 20.4252 98.3223 20.0369C97.8393 19.6487 97.2238 19.4545 96.4757 19.4545C95.7276 19.4545 95.112 19.6487 94.6291 20.0369C94.1461 20.4252 93.7886 20.9342 93.5566 21.5639C93.3246 22.1937 93.2086 22.8731 93.2086 23.6023C93.2086 24.3314 93.3246 25.0085 93.5566 25.6335C93.7886 26.2585 94.1461 26.7628 94.6291 27.1463C95.112 27.5298 95.7276 27.7216 96.4757 27.7216ZM109.602 29V18.0909H118.182V29H116.506V19.6534H111.279V29H109.602ZM121.243 33.0909V18.0909H122.862V19.8239H123.061C123.184 19.6345 123.355 19.393 123.573 19.0994C123.795 18.8011 124.112 18.536 124.524 18.304C124.941 18.0672 125.504 17.9489 126.215 17.9489C127.133 17.9489 127.943 18.1785 128.644 18.6378C129.344 19.0971 129.891 19.7481 130.284 20.5909C130.677 21.4337 130.874 22.428 130.874 23.5739C130.874 24.7292 130.677 25.7306 130.284 26.5781C129.891 27.4209 129.347 28.0743 128.651 28.5384C127.955 28.9976 127.152 29.2273 126.243 29.2273C125.542 29.2273 124.981 29.1113 124.56 28.8793C124.138 28.6425 123.814 28.375 123.587 28.0767C123.36 27.7737 123.184 27.5227 123.061 27.3239H122.919V33.0909H121.243ZM122.891 23.5455C122.891 24.3693 123.012 25.0961 123.253 25.7259C123.494 26.3509 123.847 26.8409 124.311 27.196C124.775 27.5464 125.343 27.7216 126.016 27.7216C126.717 27.7216 127.301 27.5369 127.77 27.1676C128.244 26.7936 128.599 26.2917 128.835 25.6619C129.077 25.0275 129.198 24.322 129.198 23.5455C129.198 22.7784 129.079 22.0871 128.843 21.4716C128.61 20.8513 128.258 20.3613 127.784 20.0014C127.316 19.6368 126.726 19.4545 126.016 19.4545C125.334 19.4545 124.761 19.6274 124.297 19.973C123.833 20.3139 123.483 20.7921 123.246 21.4077C123.009 22.0185 122.891 22.7311 122.891 23.5455ZM137.862 29.2273C136.878 29.2273 136.013 28.9929 135.27 28.5241C134.531 28.0554 133.954 27.3996 133.537 26.5568C133.125 25.714 132.919 24.7292 132.919 23.6023C132.919 22.4659 133.125 21.474 133.537 20.6264C133.954 19.7789 134.531 19.1207 135.27 18.652C136.013 18.1832 136.878 17.9489 137.862 17.9489C138.847 17.9489 139.709 18.1832 140.448 18.652C141.191 19.1207 141.769 19.7789 142.181 20.6264C142.597 21.474 142.806 22.4659 142.806 23.6023C142.806 24.7292 142.597 25.714 142.181 26.5568C141.769 27.3996 141.191 28.0554 140.448 28.5241C139.709 28.9929 138.847 29.2273 137.862 29.2273ZM137.862 27.7216C138.61 27.7216 139.226 27.5298 139.709 27.1463C140.192 26.7628 140.549 26.2585 140.781 25.6335C141.013 25.0085 141.129 24.3314 141.129 23.6023C141.129 22.8731 141.013 22.1937 140.781 21.5639C140.549 20.9342 140.192 20.4252 139.709 20.0369C139.226 19.6487 138.61 19.4545 137.862 19.4545C137.114 19.4545 136.499 19.6487 136.016 20.0369C135.533 20.4252 135.175 20.9342 134.943 21.5639C134.711 22.1937 134.595 22.8731 134.595 23.6023C134.595 24.3314 134.711 25.0085 134.943 25.6335C135.175 26.2585 135.533 26.7628 136.016 27.1463C136.499 27.5298 137.114 27.7216 137.862 27.7216ZM152.097 18.0909V19.6534H147.04V29H145.364V18.0909H152.097ZM161.845 22.7784V24.3409H155.822V22.7784H161.845ZM156.22 18.0909V29H154.544V18.0909H156.22ZM163.123 18.0909V29H161.447V18.0909H163.123ZM170.616 29.2273C169.631 29.2273 168.767 28.9929 168.024 28.5241C167.285 28.0554 166.708 27.3996 166.291 26.5568C165.879 25.714 165.673 24.7292 165.673 23.6023C165.673 22.4659 165.879 21.474 166.291 20.6264C166.708 19.7789 167.285 19.1207 168.024 18.652C168.767 18.1832 169.631 17.9489 170.616 17.9489C171.601 17.9489 172.463 18.1832 173.202 18.652C173.945 19.1207 174.523 19.7789 174.934 20.6264C175.351 21.474 175.559 22.4659 175.559 23.6023C175.559 24.7292 175.351 25.714 174.934 26.5568C174.523 27.3996 173.945 28.0554 173.202 28.5241C172.463 28.9929 171.601 29.2273 170.616 29.2273ZM170.616 27.7216C171.364 27.7216 171.98 27.5298 172.463 27.1463C172.946 26.7628 173.303 26.2585 173.535 25.6335C173.767 25.0085 173.883 24.3314 173.883 23.6023C173.883 22.8731 173.767 22.1937 173.535 21.5639C173.303 20.9342 172.946 20.4252 172.463 20.0369C171.98 19.6487 171.364 19.4545 170.616 19.4545C169.868 19.4545 169.253 19.6487 168.77 20.0369C168.287 20.4252 167.929 20.9342 167.697 21.5639C167.465 22.1937 167.349 22.8731 167.349 23.6023C167.349 24.3314 167.465 25.0085 167.697 25.6335C167.929 26.2585 168.287 26.7628 168.77 27.1463C169.253 27.5298 169.868 27.7216 170.616 27.7216ZM177.436 26.2159H179.226C179.264 26.7083 179.486 27.0824 179.894 27.3381C180.306 27.5938 180.841 27.7216 181.499 27.7216C182.171 27.7216 182.746 27.5843 183.225 27.3097C183.703 27.0303 183.942 26.5805 183.942 25.9602C183.942 25.5956 183.852 25.2784 183.672 25.0085C183.492 24.7339 183.239 24.5208 182.912 24.3693C182.585 24.2178 182.2 24.142 181.754 24.142H179.879V22.6364H181.754C182.422 22.6364 182.914 22.4848 183.232 22.1818C183.554 21.8788 183.715 21.5 183.715 21.0455C183.715 20.5578 183.542 20.1671 183.196 19.8736C182.851 19.5753 182.36 19.4261 181.726 19.4261C181.087 19.4261 180.554 19.5705 180.128 19.8594C179.702 20.1435 179.477 20.5104 179.453 20.9602H177.692C177.711 20.3731 177.891 19.8546 178.232 19.4048C178.573 18.9503 179.037 18.5952 179.624 18.3395C180.211 18.0791 180.883 17.9489 181.641 17.9489C182.408 17.9489 183.073 18.0838 183.637 18.3537C184.205 18.6188 184.643 18.9811 184.95 19.4403C185.263 19.8949 185.419 20.411 185.419 20.9886C185.419 21.6042 185.246 22.1013 184.901 22.4801C184.555 22.8589 184.122 23.1288 183.601 23.2898V23.4034C184.013 23.4318 184.37 23.5644 184.673 23.8011C184.981 24.0331 185.22 24.3385 185.391 24.7173C185.561 25.0914 185.646 25.5057 185.646 25.9602C185.646 26.6231 185.469 27.2008 185.114 27.6932C184.759 28.1809 184.271 28.5597 183.651 28.8295C183.03 29.0947 182.323 29.2273 181.527 29.2273C180.755 29.2273 180.064 29.1018 179.453 28.8509C178.843 28.5952 178.357 28.2424 177.997 27.7926C177.642 27.3381 177.455 26.8125 177.436 26.2159ZM191.211 29.2557C190.52 29.2557 189.892 29.1255 189.329 28.8651C188.766 28.5999 188.318 28.2188 187.987 27.7216C187.655 27.2197 187.49 26.6136 187.49 25.9034C187.49 25.2784 187.613 24.7718 187.859 24.3835C188.105 23.9905 188.434 23.6828 188.846 23.4602C189.258 23.2377 189.713 23.072 190.21 22.9631C190.712 22.8494 191.216 22.7595 191.722 22.6932C192.385 22.608 192.923 22.544 193.335 22.5014C193.751 22.4541 194.054 22.3759 194.244 22.267C194.438 22.1581 194.535 21.9687 194.535 21.6989V21.642C194.535 20.9413 194.343 20.3968 193.96 20.0085C193.581 19.6203 193.006 19.4261 192.234 19.4261C191.434 19.4261 190.806 19.6013 190.352 19.9517C189.897 20.3021 189.578 20.6761 189.393 21.0739L187.802 20.5057C188.086 19.8428 188.465 19.3267 188.938 18.9574C189.417 18.5833 189.937 18.3229 190.501 18.1761C191.069 18.0246 191.628 17.9489 192.177 17.9489C192.527 17.9489 192.93 17.9915 193.384 18.0767C193.844 18.1572 194.286 18.3253 194.713 18.581C195.143 18.8366 195.501 19.2225 195.785 19.7386C196.069 20.2547 196.211 20.946 196.211 21.8125V29H194.535V27.5227H194.45C194.336 27.7595 194.147 28.0128 193.882 28.2827C193.616 28.5526 193.264 28.7822 192.823 28.9716C192.383 29.161 191.846 29.2557 191.211 29.2557ZM191.467 27.75C192.13 27.75 192.688 27.6198 193.143 27.3594C193.602 27.099 193.948 26.7628 194.18 26.3509C194.417 25.9389 194.535 25.5057 194.535 25.0511V23.517C194.464 23.6023 194.308 23.6804 194.066 23.7514C193.829 23.8177 193.555 23.8769 193.242 23.929C192.935 23.9763 192.634 24.0189 192.34 24.0568C192.052 24.09 191.817 24.1184 191.637 24.142C191.202 24.1989 190.794 24.2912 190.416 24.419C190.042 24.5421 189.739 24.7292 189.507 24.9801C189.279 25.2263 189.166 25.5625 189.166 25.9886C189.166 26.571 189.381 27.0114 189.812 27.3097C190.248 27.6032 190.799 27.75 191.467 27.75ZM209.327 29.2273C208.305 29.2273 207.424 28.9858 206.685 28.5028C205.947 28.0199 205.378 27.3546 204.981 26.5071C204.583 25.6596 204.384 24.6913 204.384 23.6023C204.384 22.4943 204.588 21.5166 204.995 20.669C205.407 19.8168 205.98 19.1515 206.714 18.6733C207.452 18.1903 208.314 17.9489 209.299 17.9489C210.066 17.9489 210.757 18.0909 211.373 18.375C211.988 18.6591 212.492 19.0568 212.885 19.5682C213.278 20.0795 213.522 20.6761 213.617 21.358H211.941C211.813 20.8608 211.529 20.4205 211.089 20.0369C210.653 19.6487 210.066 19.4545 209.327 19.4545C208.674 19.4545 208.101 19.625 207.608 19.9659C207.121 20.3021 206.74 20.7779 206.465 21.3935C206.195 22.0043 206.06 22.7216 206.06 23.5455C206.06 24.3883 206.193 25.1222 206.458 25.7472C206.728 26.3722 207.107 26.8575 207.594 27.2031C208.087 27.5488 208.664 27.7216 209.327 27.7216C209.763 27.7216 210.158 27.6458 210.513 27.4943C210.868 27.3428 211.169 27.125 211.415 26.8409C211.662 26.5568 211.837 26.2159 211.941 25.8182H213.617C213.522 26.4621 213.288 27.0421 212.914 27.5582C212.545 28.0696 212.055 28.4768 211.444 28.7798C210.838 29.0781 210.132 29.2273 209.327 29.2273ZM216.067 29V18.0909H224.647V29H222.971V19.6534H217.743V29H216.067ZM227.708 33.0909V18.0909H229.327V19.8239H229.526C229.649 19.6345 229.82 19.393 230.037 19.0994C230.26 18.8011 230.577 18.536 230.989 18.304C231.406 18.0672 231.969 17.9489 232.68 17.9489C233.598 17.9489 234.408 18.1785 235.108 18.6378C235.809 19.0971 236.356 19.7481 236.749 20.5909C237.142 21.4337 237.339 22.428 237.339 23.5739C237.339 24.7292 237.142 25.7306 236.749 26.5781C236.356 27.4209 235.812 28.0743 235.116 28.5384C234.42 28.9976 233.617 29.2273 232.708 29.2273C232.007 29.2273 231.446 29.1113 231.025 28.8793C230.603 28.6425 230.279 28.375 230.052 28.0767C229.824 27.7737 229.649 27.5227 229.526 27.3239H229.384V33.0909H227.708ZM229.356 23.5455C229.356 24.3693 229.476 25.0961 229.718 25.7259C229.959 26.3509 230.312 26.8409 230.776 27.196C231.24 27.5464 231.808 27.7216 232.481 27.7216C233.181 27.7216 233.766 27.5369 234.235 27.1676C234.708 26.7936 235.064 26.2917 235.3 25.6619C235.542 25.0275 235.662 24.322 235.662 23.5455C235.662 22.7784 235.544 22.0871 235.307 21.4716C235.075 20.8513 234.723 20.3613 234.249 20.0014C233.78 19.6368 233.191 19.4545 232.481 19.4545C231.799 19.4545 231.226 19.6274 230.762 19.973C230.298 20.3139 229.948 20.7921 229.711 21.4077C229.474 22.0185 229.356 22.7311 229.356 23.5455ZM244.327 29.2273C243.342 29.2273 242.478 28.9929 241.735 28.5241C240.996 28.0554 240.419 27.3996 240.002 26.5568C239.59 25.714 239.384 24.7292 239.384 23.6023C239.384 22.4659 239.59 21.474 240.002 20.6264C240.419 19.7789 240.996 19.1207 241.735 18.652C242.478 18.1832 243.342 17.9489 244.327 17.9489C245.312 17.9489 246.174 18.1832 246.912 18.652C247.656 19.1207 248.233 19.7789 248.645 20.6264C249.062 21.474 249.27 22.4659 249.27 23.6023C249.27 24.7292 249.062 25.714 248.645 26.5568C248.233 27.3996 247.656 28.0554 246.912 28.5241C246.174 28.9929 245.312 29.2273 244.327 29.2273ZM244.327 27.7216C245.075 27.7216 245.691 27.5298 246.174 27.1463C246.657 26.7628 247.014 26.2585 247.246 25.6335C247.478 25.0085 247.594 24.3314 247.594 23.6023C247.594 22.8731 247.478 22.1937 247.246 21.5639C247.014 20.9342 246.657 20.4252 246.174 20.0369C245.691 19.6487 245.075 19.4545 244.327 19.4545C243.579 19.4545 242.964 19.6487 242.481 20.0369C241.998 20.4252 241.64 20.9342 241.408 21.5639C241.176 22.1937 241.06 22.8731 241.06 23.6023C241.06 24.3314 241.176 25.0085 241.408 25.6335C241.64 26.2585 241.998 26.7628 242.481 27.1463C242.964 27.5298 243.579 27.7216 244.327 27.7216ZM256.261 29.2273C255.238 29.2273 254.357 28.9858 253.619 28.5028C252.88 28.0199 252.312 27.3546 251.914 26.5071C251.517 25.6596 251.318 24.6913 251.318 23.6023C251.318 22.4943 251.521 21.5166 251.928 20.669C252.34 19.8168 252.913 19.1515 253.647 18.6733C254.386 18.1903 255.248 17.9489 256.232 17.9489C256.999 17.9489 257.691 18.0909 258.306 18.375C258.922 18.6591 259.426 19.0568 259.819 19.5682C260.212 20.0795 260.456 20.6761 260.551 21.358H258.874C258.747 20.8608 258.463 20.4205 258.022 20.0369C257.587 19.6487 256.999 19.4545 256.261 19.4545C255.607 19.4545 255.035 19.625 254.542 19.9659C254.054 20.3021 253.673 20.7779 253.399 21.3935C253.129 22.0043 252.994 22.7216 252.994 23.5455C252.994 24.3883 253.126 25.1222 253.392 25.7472C253.661 26.3722 254.04 26.8575 254.528 27.2031C255.02 27.5488 255.598 27.7216 256.261 27.7216C256.696 27.7216 257.092 27.6458 257.447 27.4943C257.802 27.3428 258.103 27.125 258.349 26.8409C258.595 26.5568 258.77 26.2159 258.874 25.8182H260.551C260.456 26.4621 260.222 27.0421 259.847 27.5582C259.478 28.0696 258.988 28.4768 258.377 28.7798C257.771 29.0781 257.066 29.2273 256.261 29.2273ZM266.211 29.2557C265.52 29.2557 264.892 29.1255 264.329 28.8651C263.766 28.5999 263.318 28.2188 262.987 27.7216C262.655 27.2197 262.49 26.6136 262.49 25.9034C262.49 25.2784 262.613 24.7718 262.859 24.3835C263.105 23.9905 263.434 23.6828 263.846 23.4602C264.258 23.2377 264.713 23.072 265.21 22.9631C265.712 22.8494 266.216 22.7595 266.722 22.6932C267.385 22.608 267.923 22.544 268.335 22.5014C268.751 22.4541 269.054 22.3759 269.244 22.267C269.438 22.1581 269.535 21.9687 269.535 21.6989V21.642C269.535 20.9413 269.343 20.3968 268.96 20.0085C268.581 19.6203 268.006 19.4261 267.234 19.4261C266.434 19.4261 265.806 19.6013 265.352 19.9517C264.897 20.3021 264.578 20.6761 264.393 21.0739L262.802 20.5057C263.086 19.8428 263.465 19.3267 263.938 18.9574C264.417 18.5833 264.937 18.3229 265.501 18.1761C266.069 18.0246 266.628 17.9489 267.177 17.9489C267.527 17.9489 267.93 17.9915 268.384 18.0767C268.844 18.1572 269.286 18.3253 269.713 18.581C270.143 18.8366 270.501 19.2225 270.785 19.7386C271.069 20.2547 271.211 20.946 271.211 21.8125V29H269.535V27.5227H269.45C269.336 27.7595 269.147 28.0128 268.882 28.2827C268.616 28.5526 268.264 28.7822 267.823 28.9716C267.383 29.161 266.846 29.2557 266.211 29.2557ZM266.467 27.75C267.13 27.75 267.688 27.6198 268.143 27.3594C268.602 27.099 268.948 26.7628 269.18 26.3509C269.417 25.9389 269.535 25.5057 269.535 25.0511V23.517C269.464 23.6023 269.308 23.6804 269.066 23.7514C268.829 23.8177 268.555 23.8769 268.242 23.929C267.935 23.9763 267.634 24.0189 267.34 24.0568C267.052 24.09 266.817 24.1184 266.637 24.142C266.202 24.1989 265.794 24.2912 265.416 24.419C265.042 24.5421 264.739 24.7292 264.507 24.9801C264.279 25.2263 264.166 25.5625 264.166 25.9886C264.166 26.571 264.381 27.0114 264.812 27.3097C265.248 27.6032 265.799 27.75 266.467 27.75Z" fill="#2B2D33"/>
<path d="M206.545 158L200.182 134.727H203.045L207.909 153.682H208.136L213.091 134.727H216.273L221.227 153.682H221.455L226.318 134.727H229.182L222.818 158H219.909L214.773 139.455H214.591L209.455 158H206.545ZM231.835 158H228.881L237.426 134.727H240.335L248.881 158H245.926L238.972 138.409H238.79L231.835 158ZM232.926 148.909H244.835V151.409H232.926V148.909ZM252.506 158V134.727H260.369C262.195 134.727 263.688 135.057 264.847 135.716C266.013 136.367 266.877 137.25 267.438 138.364C267.998 139.477 268.278 140.72 268.278 142.091C268.278 143.462 267.998 144.708 267.438 145.83C266.884 146.951 266.028 147.845 264.869 148.511C263.71 149.17 262.225 149.5 260.415 149.5H254.778V147H260.324C261.574 147 262.578 146.784 263.335 146.352C264.093 145.92 264.642 145.337 264.983 144.602C265.331 143.86 265.506 143.023 265.506 142.091C265.506 141.159 265.331 140.326 264.983 139.591C264.642 138.856 264.089 138.28 263.324 137.864C262.559 137.439 261.544 137.227 260.278 137.227H255.324V158H252.506ZM272.818 158V134.727H286.864V137.227H275.636V145.091H286.136V147.591H275.636V155.5H287.045V158H272.818ZM312.398 153.636V152.409C312.398 151.561 312.572 150.784 312.92 150.08C313.277 149.367 313.792 148.799 314.466 148.375C315.148 147.943 315.973 147.727 316.943 147.727C317.928 147.727 318.754 147.943 319.42 148.375C320.087 148.799 320.591 149.367 320.932 150.08C321.273 150.784 321.443 151.561 321.443 152.409V153.636C321.443 154.485 321.269 155.265 320.92 155.977C320.58 156.682 320.072 157.25 319.398 157.682C318.731 158.106 317.913 158.318 316.943 158.318C315.958 158.318 315.129 158.106 314.455 157.682C313.78 157.25 313.269 156.682 312.92 155.977C312.572 155.265 312.398 154.485 312.398 153.636ZM314.716 152.409V153.636C314.716 154.341 314.883 154.973 315.216 155.534C315.549 156.087 316.125 156.364 316.943 156.364C317.739 156.364 318.299 156.087 318.625 155.534C318.958 154.973 319.125 154.341 319.125 153.636V152.409C319.125 151.705 318.966 151.076 318.648 150.523C318.33 149.962 317.761 149.682 316.943 149.682C316.148 149.682 315.576 149.962 315.227 150.523C314.886 151.076 314.716 151.705 314.716 152.409ZM300.807 140.318V139.091C300.807 138.242 300.981 137.466 301.33 136.761C301.686 136.049 302.201 135.481 302.875 135.057C303.557 134.625 304.383 134.409 305.352 134.409C306.337 134.409 307.163 134.625 307.83 135.057C308.496 135.481 309 136.049 309.341 136.761C309.682 137.466 309.852 138.242 309.852 139.091V140.318C309.852 141.167 309.678 141.947 309.33 142.659C308.989 143.364 308.481 143.932 307.807 144.364C307.14 144.788 306.322 145 305.352 145C304.367 145 303.538 144.788 302.864 144.364C302.189 143.932 301.678 143.364 301.33 142.659C300.981 141.947 300.807 141.167 300.807 140.318ZM303.125 139.091V140.318C303.125 141.023 303.292 141.655 303.625 142.216C303.958 142.769 304.534 143.045 305.352 143.045C306.148 143.045 306.708 142.769 307.034 142.216C307.367 141.655 307.534 141.023 307.534 140.318V139.091C307.534 138.386 307.375 137.758 307.057 137.205C306.739 136.644 306.17 136.364 305.352 136.364C304.557 136.364 303.985 136.644 303.636 137.205C303.295 137.758 303.125 138.386 303.125 139.091ZM301.67 158L317.67 134.727H320.261L304.261 158H301.67Z" fill="#2B2D33"/>
</svg>
