<svg width="160" height="48" viewBox="0 0 160 48" fill="none" xmlns="http://www.w3.org/2000/svg">
<path d="M0 31.755C2.78261 38.2175 9.15942 42.8 16.5797 42.8C13.7971 36.3375 7.42029 31.755 0 31.755Z" fill="#12B36A"/>
<path d="M16.5797 42.8C22.029 42.8 26.7826 39.51 28.8696 34.81C23.3043 34.81 18.6667 38.1 16.5797 42.8Z" fill="#12B36A"/>
<path d="M16.5797 6.375C9.04345 6.375 3.01447 12.485 3.01447 20.005C3.01447 27.525 9.04345 33.635 16.4637 33.635C23.884 33.635 29.913 27.525 29.913 20.005C30.029 12.485 24 6.375 16.5797 6.375ZM16.5797 26.82C12.8695 26.82 9.85504 23.765 9.85504 20.005C9.85504 16.245 12.8695 13.19 16.5797 13.19C20.2898 13.19 23.3043 16.245 23.3043 20.005C23.3043 23.765 20.2898 26.82 16.5797 26.82Z" fill="#FEBE10"/>
<path d="M103.304 20.005H108.985V42.095H103.304V33.5175H93.4492V42.095H87.7681V20.005H93.4492V28.1125H103.304V20.005ZM111.536 25.5275H118.609V42.2125H124.29V25.5275H131.246V20.005H111.536V25.5275ZM158.493 37.395V42.095C157.565 42.565 156.29 42.8 154.899 42.8C152 42.8 150.493 41.5075 149.913 39.3925L149.797 39.51C148.058 41.625 145.739 42.8 142.725 42.8C139.826 42.8 137.275 41.7425 135.188 39.3925C133.101 37.16 132.058 34.34 132.058 31.05C132.058 27.76 133.101 25.0575 135.188 22.825C137.275 20.5925 139.826 19.4175 142.725 19.4175C145.623 19.4175 147.942 20.3575 149.565 22.355V20.005H155.246V35.75C155.246 37.0425 155.826 37.7475 157.101 37.7475C157.565 37.7475 158.029 37.63 158.493 37.395ZM149.797 31.05C149.797 29.2875 149.217 27.76 148.058 26.585C146.899 25.41 145.507 24.8225 143.768 24.8225C142.029 24.8225 140.522 25.41 139.478 26.585C138.319 27.76 137.739 29.2875 137.739 31.05C137.739 32.8125 138.319 34.34 139.478 35.515C140.638 36.69 142.029 37.2775 143.768 37.2775C145.507 37.2775 147.014 36.69 148.058 35.515C149.217 34.4575 149.797 32.93 149.797 31.05ZM41.2753 20.005L41.1594 28.3475C41.1594 31.755 41.0435 33.4 40.4637 35.28C40 37.16 39.1884 37.63 37.913 37.63C37.4493 37.63 37.1014 37.63 36.7536 37.5125V42.2125C37.2174 42.4475 37.913 42.565 38.8406 42.565C42.7826 42.4475 44.7536 40.5675 45.6811 37.16C46.3768 34.6925 46.4927 32.8125 46.6087 30.11L46.7246 25.645H53.6811V42.33H59.3623V20.005H41.2753ZM68.5217 32.5775C69.1014 36.3375 72.1159 37.63 75.1304 37.63C77.1014 37.63 79.1884 36.8075 80.4637 35.6325L83.942 39.1575C81.855 41.5075 78.9565 42.8 75.0145 42.8C69.4492 42.8 62.8406 39.51 62.8406 31.05C62.8406 22.7075 69.2174 19.3 74.6666 19.3C81.6232 19.3 84.4058 22.59 84.4058 26.2325C84.4058 32.46 76.8695 35.1625 68.5217 32.5775ZM78.2608 27.055C78.2608 25.2925 76.6377 24.5875 74.6666 24.5875C71.7681 24.5875 69.3333 25.7625 68.5217 28.935C74.4348 30.6975 78.2608 29.405 78.2608 27.055Z" fill="white"/>
</svg>
