<svg width="21" height="18" viewBox="0 0 21 18" fill="none" xmlns="http://www.w3.org/2000/svg">
<path d="M10.78 2.22C10.7104 2.15034 10.6278 2.09507 10.5369 2.05736C10.4459 2.01965 10.3484 2.00025 10.25 2.00025C10.1516 2.00025 10.0541 2.01965 9.96312 2.05736C9.87218 2.09507 9.78957 2.15034 9.72 2.22L3.47 8.47C3.40034 8.53957 3.34507 8.62218 3.30736 8.71312C3.26965 8.80407 3.25025 8.90155 3.25025 9C3.25025 9.09845 3.26965 9.19593 3.30736 9.28688C3.34507 9.37782 3.40034 9.46043 3.47 9.53L9.72 15.78C9.7896 15.8496 9.87223 15.9048 9.96317 15.9425C10.0541 15.9801 10.1516 15.9995 10.25 15.9995C10.3484 15.9995 10.4459 15.9801 10.5368 15.9425C10.6278 15.9048 10.7104 15.8496 10.78 15.78C10.8496 15.7104 10.9048 15.6278 10.9425 15.5368C10.9801 15.4459 10.9995 15.3484 10.9995 15.25C10.9995 15.1516 10.9801 15.0541 10.9425 14.9632C10.9048 14.8722 10.8496 14.7896 10.78 14.72L5.811 9.75H20.25C20.4489 9.75 20.6397 9.67098 20.7803 9.53033C20.921 9.38968 21 9.19891 21 9C21 8.80109 20.921 8.61032 20.7803 8.46967C20.6397 8.32902 20.4489 8.25 20.25 8.25H5.811L10.78 3.28C10.8497 3.21044 10.9049 3.12782 10.9426 3.03688C10.9803 2.94593 10.9998 2.84845 10.9998 2.75C10.9998 2.65155 10.9803 2.55407 10.9426 2.46312C10.9049 2.37218 10.8497 2.28956 10.78 2.22ZM0.75 0.75C0.551088 0.75 0.360321 0.829018 0.219669 0.96967C0.0790176 1.11032 0 1.30109 0 1.5V16.5C0 16.6989 0.0790176 16.8897 0.219669 17.0303C0.360321 17.171 0.551088 17.25 0.75 17.25C0.948912 17.25 1.13968 17.171 1.28033 17.0303C1.42098 16.8897 1.5 16.6989 1.5 16.5V1.5C1.5 1.30109 1.42098 1.11032 1.28033 0.96967C1.13968 0.829018 0.948912 0.75 0.75 0.75Z" fill="#A8A8A8"/>
</svg>
