<svg width="18" height="14" viewBox="0 0 18 14" fill="none" xmlns="http://www.w3.org/2000/svg">
<path d="M10.22 0.220243C10.2896 0.150578 10.3722 0.0953123 10.4631 0.0576048C10.5541 0.0198973 10.6516 0.000488281 10.75 0.000488281C10.8484 0.000488281 10.9459 0.0198973 11.0369 0.0576048C11.1278 0.0953123 11.2104 0.150578 11.28 0.220243L17.53 6.47024C17.5997 6.53981 17.6549 6.62242 17.6926 6.71337C17.7303 6.80431 17.7498 6.90179 17.7498 7.00024C17.7498 7.09869 17.7303 7.19618 17.6926 7.28712C17.6549 7.37806 17.5997 7.46068 17.53 7.53024L11.28 13.7802C11.2104 13.8498 11.1278 13.9051 11.0368 13.9427C10.9459 13.9804 10.8484 13.9998 10.75 13.9998C10.6516 13.9998 10.5541 13.9804 10.4632 13.9427C10.3722 13.9051 10.2896 13.8498 10.22 13.7802C10.1504 13.7106 10.0952 13.628 10.0575 13.5371C10.0199 13.4461 10.0005 13.3487 10.0005 13.2502C10.0005 13.1518 10.0199 13.0543 10.0575 12.9634C10.0952 12.8725 10.1504 12.7898 10.22 12.7202L15.189 7.75024H0.75C0.551088 7.75024 0.360322 7.67122 0.21967 7.53057C0.0790177 7.38992 0 7.19915 0 7.00024C0 6.80133 0.0790177 6.61057 0.21967 6.46991C0.360322 6.32926 0.551088 6.25024 0.75 6.25024H15.189L10.22 1.28024C10.1503 1.21068 10.0951 1.12806 10.0574 1.03712C10.0197 0.946177 10.0002 0.848693 10.0002 0.750243C10.0002 0.651793 10.0197 0.554309 10.0574 0.463367C10.0951 0.372424 10.1503 0.289807 10.22 0.220243Z" fill="black"/>
</svg>
