<svg width="18" height="14" viewBox="0 0 18 14" fill="none" xmlns="http://www.w3.org/2000/svg">
<path d="M7.53 0.220243C7.46043 0.150578 7.37782 0.0953123 7.28688 0.0576048C7.19593 0.0198973 7.09845 0.000488281 7 0.000488281C6.90155 0.000488281 6.80407 0.0198973 6.71312 0.0576048C6.62218 0.0953123 6.53957 0.150578 6.47 0.220243L0.219999 6.47024C0.150335 6.53981 0.0950699 6.62242 0.0573616 6.71337C0.0196533 6.80431 0.000246048 6.90179 0.000246048 7.00024C0.000246048 7.09869 0.0196533 7.19618 0.0573616 7.28712C0.0950699 7.37806 0.150335 7.46068 0.219999 7.53024L6.47 13.7802C6.5396 13.8498 6.62223 13.9051 6.71317 13.9427C6.8041 13.9804 6.90157 13.9998 7 13.9998C7.09843 13.9998 7.1959 13.9804 7.28683 13.9427C7.37777 13.9051 7.4604 13.8498 7.53 13.7802C7.5996 13.7106 7.65481 13.628 7.69248 13.5371C7.73015 13.4461 7.74953 13.3487 7.74953 13.2502C7.74953 13.1518 7.73015 13.0543 7.69248 12.9634C7.65481 12.8725 7.5996 12.7898 7.53 12.7202L2.561 7.75024H17C17.1989 7.75024 17.3897 7.67122 17.5303 7.53057C17.671 7.38992 17.75 7.19915 17.75 7.00024C17.75 6.80133 17.671 6.61057 17.5303 6.46991C17.3897 6.32926 17.1989 6.25024 17 6.25024H2.561L7.53 1.28024C7.59966 1.21068 7.65493 1.12806 7.69264 1.03712C7.73035 0.946177 7.74975 0.848693 7.74975 0.750243C7.74975 0.651793 7.73035 0.554309 7.69264 0.463367C7.65493 0.372424 7.59966 0.289807 7.53 0.220243Z" fill="#A8A8A8"/>
</svg>
