<svg width="22" height="18" viewBox="0 0 22 18" fill="none" xmlns="http://www.w3.org/2000/svg">
<path d="M10.72 2.22C10.7896 2.15034 10.8722 2.09507 10.9631 2.05736C11.0541 2.01965 11.1516 2.00025 11.25 2.00025C11.3484 2.00025 11.4459 2.01965 11.5369 2.05736C11.6278 2.09507 11.7104 2.15034 11.78 2.22L18.03 8.47C18.0997 8.53957 18.1549 8.62218 18.1926 8.71312C18.2303 8.80407 18.2498 8.90155 18.2498 9C18.2498 9.09845 18.2303 9.19593 18.1926 9.28688C18.1549 9.37782 18.0997 9.46043 18.03 9.53L11.78 15.78C11.7104 15.8496 11.6278 15.9048 11.5368 15.9425C11.4459 15.9801 11.3484 15.9995 11.25 15.9995C11.1516 15.9995 11.0541 15.9801 10.9632 15.9425C10.8722 15.9048 10.7896 15.8496 10.72 15.78C10.6504 15.7104 10.5952 15.6278 10.5575 15.5368C10.5199 15.4459 10.5005 15.3484 10.5005 15.25C10.5005 15.1516 10.5199 15.0541 10.5575 14.9632C10.5952 14.8722 10.6504 14.7896 10.72 14.72L15.689 9.75H1.25C1.05109 9.75 0.860322 9.67098 0.71967 9.53033C0.579018 9.38968 0.5 9.19891 0.5 9C0.5 8.80109 0.579018 8.61032 0.71967 8.46967C0.860322 8.32902 1.05109 8.25 1.25 8.25H15.689L10.72 3.28C10.6503 3.21044 10.5951 3.12782 10.5574 3.03688C10.5197 2.94593 10.5002 2.84845 10.5002 2.75C10.5002 2.65155 10.5197 2.55407 10.5574 2.46312C10.5951 2.37218 10.6503 2.28956 10.72 2.22ZM20.75 0.75C20.9489 0.75 21.1397 0.829018 21.2803 0.96967C21.421 1.11032 21.5 1.30109 21.5 1.5V16.5C21.5 16.6989 21.421 16.8897 21.2803 17.0303C21.1397 17.171 20.9489 17.25 20.75 17.25C20.5511 17.25 20.3603 17.171 20.2197 17.0303C20.079 16.8897 20 16.6989 20 16.5V1.5C20 1.30109 20.079 1.11032 20.2197 0.96967C20.3603 0.829018 20.5511 0.75 20.75 0.75Z" fill="black"/>
</svg>
